<?xml version="1.0" standalone="no"?>
<!DOCTYPE svg PUBLIC "-//W3C//DTD SVG 1.1//EN" "http://www.w3.org/Graphics/SVG/1.1/DTD/svg11.dtd" >
<!--
2013-9-30: Created.
-->
<svg>
<metadata>
Created by iconfont
</metadata>
<defs>

<font id="iconfont" horiz-adv-x="1024" >
  <font-face
    font-family="iconfont"
    font-weight="500"
    font-stretch="normal"
    units-per-em="1024"
    ascent="896"
    descent="-128"
  />
    <missing-glyph />
    
    <glyph glyph-name="roundcheck" unicode="&#58967;" d="M512-64C264.96-64 64 136.96 64 384S264.96 832 512 832s448-200.96 448-448S759.04-64 512-64zM512 767.712C300.416 767.712 128.288 595.584 128.288 384c0-211.552 172.128-383.712 383.712-383.712 211.552 0 383.712 172.16 383.712 383.712C895.712 595.584 723.552 767.712 512 767.712zM726.976 502.816c-12.544 12.448-32.832 12.32-45.248-0.256l-233.28-235.84-103.264 106.112c-12.352 12.704-32.608 12.928-45.248 0.64-12.672-12.32-12.96-32.608-0.64-45.248l126.016-129.504c0.064-0.096 0.192-0.096 0.256-0.192 0.064-0.064 0.096-0.192 0.16-0.256 2.016-1.984 4.512-3.2 6.88-4.544 1.248-0.672 2.24-1.792 3.52-2.304 3.872-1.6 8-2.4 12.096-2.4 4.064 0 8.128 0.8 11.968 2.336 1.248 0.512 2.208 1.536 3.392 2.176 2.4 1.344 4.896 2.528 6.944 4.544 0.064 0.064 0.096 0.192 0.192 0.256 0.064 0.096 0.16 0.128 0.256 0.192l256.224 259.008C739.648 470.144 739.52 490.4 726.976 502.816z"  horiz-adv-x="1024" />

    
    <glyph glyph-name="round" unicode="&#59095;" d="M512-64C264.96-64 64 136.96 64 384S264.96 832 512 832s448-200.96 448-448S759.04-64 512-64zM512 768C300.256 768 128 595.744 128 384c0-211.744 172.256-384 384-384 211.744 0 384 172.256 384 384C896 595.744 723.744 768 512 768z"  horiz-adv-x="1024" />

    
    <glyph glyph-name="quanxuan" unicode="&#59464;" d="M512 832C264.575 832 64 631.425 64 384.003 64 136.578 264.575-64 512-64s448 200.578 448 448.003C960 631.425 759.425 832 512 832z m0-840c-216.496 0-392 175.507-392 392.003S295.504 776 512 776s392-175.501 392-391.997S728.496-8 512-8z"  horiz-adv-x="1024" />

    
    <glyph glyph-name="fenxiang" unicode="&#58916;" d="M972.8 346.0864v-294.7584A128.0768 128.0768 0 0 0 844.8-76.8H179.2a128 128 0 0 0-128 128V716.8c0 70.7328 57.1904 128 127.872 128h202.3168a25.6 25.6 0 0 1 0 51.2H179.072A179.072 179.072 0 0 1 0 716.8v-665.6a179.2 179.2 0 0 1 179.2-179.2h665.6c98.944 0 179.2 80.2816 179.2 179.328V346.0864a25.6 25.6 0 0 1-51.2 0zM960 768c-353.4592 0-640-286.5408-640-640a25.6 25.6 0 0 1 51.2 0c0 325.1968 263.6032 588.8 588.8 588.8a25.6 25.6 0 0 1 0 51.2zM720.1024 833.8432l256-102.4a25.6 25.6 0 0 1 18.9952 47.5136l-256 102.4a25.6 25.6 0 0 1-18.9952-47.5136zM808.8064 547.5328l194.6368 189.312a25.6 25.6 0 1 1-35.6864 36.7104L773.12 584.2432a25.6 25.6 0 1 1 35.6864-36.7104z"  horiz-adv-x="1024" />

    
    <glyph glyph-name="kefu" unicode="&#58917;" d="M55.351351 342.597189v-110.924108a83.027027 83.027027 0 0 1 166.054054 0v110.924108a83.027027 83.027027 0 0 1-166.054054 0z m763.101406-211.552865A137.852541 137.852541 0 0 0 774.918919 231.673081v110.924108A138.378378 138.378378 0 0 0 912.328649 480.864865C898.131027 681.928649 730.499459 840.648649 525.837838 840.648649 321.148541 840.648649 153.544649 681.928649 139.347027 480.864865A138.461405 138.461405 0 0 0 276.756757 342.597189v-110.924108a138.378378 138.378378 0 0 0-276.756757 0v110.924108a138.378378 138.378378 0 0 0 83.303784 126.865297C91.883243 706.476973 286.72 896 525.837838 896s433.954595-189.523027 442.534054-426.537514A138.461405 138.461405 0 0 0 1051.675676 342.597189v-110.924108a138.378378 138.378378 0 0 0-184.790487-130.269405 470.763243 470.763243 0 0 0-188.858811-121.21946A96.809514 96.809514 0 0 0 580.912432-114.162162h-82.528864c-53.690811 0-97.113946 43.174054-97.113946 96.864865 0 53.607784 43.284757 96.864865 97.141621 96.864865h82.473514c34.954378 0 65.536-18.265946 82.639567-45.803244a415.273514 415.273514 0 0 1 154.900757 97.28zM830.27027 342.597189v-110.924108a83.027027 83.027027 0 0 1 166.054054 0v110.924108a83.027027 83.027027 0 0 1-166.054054 0zM498.438919-58.810811h82.473513c23.302919 0 41.79027 18.487351 41.790271 41.513514 0 23.053838-18.570378 41.513514-41.790271 41.513513h-82.473513c-23.302919 0-41.79027-18.487351-41.79027-41.513513 0-23.053838 18.570378-41.513514 41.79027-41.513514z"  horiz-adv-x="1051" />

    
    <glyph glyph-name="shuoming" unicode="&#58921;" d="M481.834667 350.165333A42.538667 42.538667 0 0 0 512 362.666667a128 128 0 1 1-128 128 42.666667 42.666667 0 0 0-85.333333 0 213.333333 213.333333 0 1 0 256-209.066667v-46.933333a42.666667 42.666667 0 0 0-85.333334 0v85.333333c0 11.776 4.778667 22.442667 12.501334 30.165333zM512-128C229.248-128 0 101.248 0 384S229.248 896 512 896s512-229.248 512-512-229.248-512-512-512z m0 85.333333c235.648 0 426.666667 191.018667 426.666667 426.666667S747.648 810.666667 512 810.666667 85.333333 619.648 85.333333 384s191.018667-426.666667 426.666667-426.666667z m0 106.666667a42.666667 42.666667 0 1 0 0 85.333333 42.666667 42.666667 0 0 0 0-85.333333z"  horiz-adv-x="1024" />

    
    <glyph glyph-name="shoucang" unicode="&#58919;" d="M142.31918 355.732873l350.13559-373.653781c54.296613-63.852817 139.806023-63.883844 195.033436 1.054906l362.204951 388.670672c42.661625 48.866952 65.466202 112.130263 65.466203 182.902021a279.239726 279.239726 0 0 1-501.018122 169.653647 30.99561 30.99561 0 0 0-25.534922-12.131415 30.99561 30.99561 0 0 0-25.503895 12.131415A279.239726 279.239726 0 0 1 62.053272 554.706691c0-72.850542 28.792718-144.242832 77.411458-195.498835 1.054906-1.116959 1.985705-2.264944 2.85445-3.474983z m-54.606879-31.926409A349.732244 349.732244 0 0 0 0 554.706691C0 743.193506 152.806184 895.99969 341.292999 895.99969c95.065613 0 183.708713-39.155615 247.313317-106.111096A340.486306 340.486306 0 0 0 835.95066 895.99969c188.486815 0 341.292999-152.806184 341.292999-341.292999 0-80.793361-25.069522-154.636755-72.198982-213.463257-1.147986-1.923651-2.482131-3.754223-4.095516-5.491715l-5.181449-5.553768c-2.699317-3.071637-5.491715-6.112247-8.315138-9.090804-0.620533-0.620533-1.210039-1.241065-1.861598-1.799545L733.810974-58.069375c-79.055869-93.048882-209.553901-93.017855-287.616918-1.147985L90.783938 319.959161a31.243823 31.243823 0 0 0-3.102664 3.847303z"  horiz-adv-x="1179" />

    
    <glyph glyph-name="saoyisao" unicode="&#58926;" d="M665.6 768a21.333333 21.333333 0 1 0 0 42.666667h123.648A149.482667 149.482667 0 0 0 938.666667 661.184v-133.504a21.333333 21.333333 0 1 0-42.666667 0v133.504A106.816 106.816 0 0 1 789.248 768h-123.669333zM896 220.032a21.333333 21.333333 0 1 0 42.666667 0v-113.258667A149.397333 149.397333 0 0 0 789.333333-42.666667H234.666667c-82.389333 0-149.333333 66.986667-149.333334 149.205334v122.752a21.333333 21.333333 0 0 0 42.666667 0v-122.752A106.773333 106.773333 0 0 1 234.666667 0h554.666666c58.88 0 106.666667 47.808 106.666667 106.773333v113.28zM128 532.949333a21.333333 21.333333 0 1 0-42.666667 0v128.213334C85.333333 743.701333 152.170667 810.666667 234.624 810.666667h128.725333a21.333333 21.333333 0 0 0 0-42.666667h-128.725333A106.730667 106.730667 0 0 1 128 661.141333v-128.192zM106.666667 362.666667a21.333333 21.333333 0 0 0 0 42.666666h810.666666a21.333333 21.333333 0 0 0 0-42.666666H106.666667z"  horiz-adv-x="1024" />

    
    <glyph glyph-name="fenlei" unicode="&#58927;" d="M575.68 160a160.32 160.32 0 1 1 160.32 160.32H599.893333c-13.461333 0-24.192-10.752-24.192-24.192V160zM736 362.666667A202.666667 202.666667 0 1 0 533.333333 160V296.106667A66.432 66.432 0 0 0 599.872 362.666667H736zM490.666667 160a202.666667 202.666667 0 1 0-202.666667 202.666667h136.128A66.432 66.432 0 0 0 490.666667 296.128V160z m-202.666667 160.32a160.32 160.32 0 1 1 160.32-160.32V296.106667c0 13.44-10.730667 24.192-24.192 24.192H288zM533.333333 608.021333A202.666667 202.666667 0 1 0 736 405.333333H599.893333A66.432 66.432 0 0 0 533.333333 471.872V608z m202.666667-160.341333a160.32 160.32 0 1 1-160.32 160.32v-136.128c0-13.44 10.730667-24.192 24.192-24.192H736zM448.32 608a160.32 160.32 0 1 1-160.32-160.32h136.128c13.461333 0 24.192 10.752 24.192 24.192V608zM288 405.333333A202.666667 202.666667 0 1 0 490.666667 608v-136.128A66.432 66.432 0 0 0 424.128 405.333333H288z"  horiz-adv-x="1024" />

    
    <glyph glyph-name="faxian" unicode="&#58929;" d="M512-76.8c-253.44 0-460.8 207.36-460.8 460.8S258.56 844.8 512 844.8s460.8-207.36 460.8-460.8-207.36-460.8-460.8-460.8z m0 51.2c225.28 0 409.6 184.32 409.6 409.6S737.28 793.6 512 793.6 102.4 609.28 102.4 384s184.32-409.6 409.6-409.6z m0 204.8c-143.36 0-281.6 104.96-281.6 204.8s138.24 204.8 281.6 204.8 281.6-104.96 281.6-204.8-138.24-204.8-281.6-204.8z m0 51.2c117.76 0 230.4 87.04 230.4 153.6s-112.64 153.6-230.4 153.6-230.4-87.04-230.4-153.6 112.64-153.6 230.4-153.6z m0 51.2c-56.32 0-102.4 46.08-102.4 102.4s46.08 102.4 102.4 102.4 102.4-46.08 102.4-102.4-46.08-102.4-102.4-102.4z m0 51.2c28.16 0 51.2 23.04 51.2 51.2s-23.04 51.2-51.2 51.2-51.2-23.04-51.2-51.2 23.04-51.2 51.2-51.2z"  horiz-adv-x="1024" />

    
    <glyph glyph-name="sousuo" unicode="&#58930;" d="M474.453333 11.946667c-225.28 0-409.6 184.32-409.6 409.6s184.32 409.6 409.6 409.6 409.6-184.32 409.6-409.6-184.32-409.6-409.6-409.6z m0 68.266666c187.733333 0 341.333333 153.6 341.333334 341.333334s-153.6 341.333333-341.333334 341.333333-341.333333-153.6-341.333333-341.333333 153.6-341.333333 341.333333-341.333334z m252.586667-54.613333c-13.653333 13.653333-10.24 37.546667 3.413333 47.786667s37.546667 10.24 47.786667-3.413334l64.853333-78.506666c13.653333-13.653333 10.24-37.546667-3.413333-47.786667s-37.546667-10.24-47.786667 3.413333l-64.853333 78.506667z"  horiz-adv-x="1024" />

    
    <glyph glyph-name="liulan" unicode="&#58932;" d="M614.4-128C276.48-128 0 97.28 0 384S276.48 896 614.4 896s614.4-225.28 614.4-512-276.48-512-614.4-512z m0 102.4c286.72 0 512 184.32 512 409.6s-225.28 409.6-512 409.6S102.4 609.28 102.4 384s225.28-409.6 512-409.6z m0 153.6c-143.36 0-256 112.64-256 256s112.64 256 256 256 256-112.64 256-256-112.64-256-256-256z m0 102.4c87.04 0 153.6 66.56 153.6 153.6s-66.56 153.6-153.6 153.6-153.6-66.56-153.6-153.6 66.56-153.6 153.6-153.6z"  horiz-adv-x="1228" />

    
    <glyph glyph-name="dingyue" unicode="&#58943;" d="M704 490.666667v128a21.333333 21.333333 0 0 0 42.666667 0v-128h128a21.333333 21.333333 0 0 0 0-42.666667h-128v-128a21.333333 21.333333 0 0 0-42.666667 0v128h-128a21.333333 21.333333 0 0 0 0 42.666667h128z m149.333333-173.717334a21.333333 21.333333 0 0 0 42.666667 0V14.506667a64 64 0 0 0-98.794667-53.696l-273.088 176.96a21.333333 21.333333 0 0 1-23.189333 0l-274.197333-177.152A64 64 0 0 0 128 14.357333V661.333333a149.333333 149.333333 0 0 0 149.333333 149.333334h469.333334a149.333333 149.333333 0 0 0 149.333333-149.333334v-43.946666a21.333333 21.333333 0 0 0-42.666667 0V661.333333a106.666667 106.666667 0 0 1-106.666666 106.666667H277.333333a106.666667 106.666667 0 0 1-106.666666-106.666667v-646.976a21.333333 21.333333 0 0 1 32.917333-17.92l274.197333 177.173334a64 64 0 0 0 69.546667-0.064l273.066667-176.96A21.333333 21.333333 0 0 1 853.333333 14.506667V316.928z"  horiz-adv-x="1024" />

    
    <glyph glyph-name="dizhiguanli" unicode="&#58944;" d="M821.653333 262.186667L576.533333-21.333333a85.333333 85.333333 0 0 0-129.066666-0.064L198.634667 266.048c-1.152 1.322667-2.133333 2.773333-2.88 4.266667A361.088 361.088 0 0 0 149.333333 448c0 200.298667 162.368 362.666667 362.666667 362.666667s362.666667-162.368 362.666667-362.666667c0-63.744-16.490667-125.162667-47.381334-179.370667a21.269333 21.269333 0 0 0-5.632-6.421333zM792.32 293.546667A318.442667 318.442667 0 0 1 832 448c0 176.725333-143.274667 320-320 320-176.725333 0-320-143.274667-320-320 0-55.317333 14.037333-108.522667 40.384-155.733333l247.317333-285.738667a42.666667 42.666667 0 0 1 64.554667 0.021333L792.32 293.546667zM512 298.666667a149.333333 149.333333 0 1 0 0 298.666666 149.333333 149.333333 0 0 0 0-298.666666z m0 42.666666a106.666667 106.666667 0 1 1 0 213.333334 106.666667 106.666667 0 0 1 0-213.333334z"  horiz-adv-x="1024" />

    
    <glyph glyph-name="daifukuan1" unicode="&#58945;" d="M146.645333 299.989333a21.717333 21.717333 0 0 0-8.789333 7.061334L68.224 402.133333a21.824 21.824 0 1 0 35.2 25.792l27.690667-37.802666C139.2 611.968 321.6 789.333333 545.408 789.333333 774.4 789.333333 960 603.733333 960 374.762667s-185.6-414.592-414.570667-414.592c-147.882667 0-282.24 78.08-356.48 202.837333a21.824 21.824 0 1 0 37.482667 22.314667 370.688 370.688 0 0 1 318.997333-181.504c204.864 0 370.922667 166.08 370.922667 370.944 0 204.864-166.058667 370.922667-370.922667 370.922666-204.864 0-370.944-166.058667-370.944-370.922666 0-17.621333 1.216-35.072 3.626667-52.266667a21.824 21.824 0 0 0-31.466667-22.506667z m420.586667 74.773334v-65.472h152.746667a21.824 21.824 0 0 0 0-43.626667h-152.746667v-130.922667a21.824 21.824 0 1 0-43.626667 0v130.922667h-152.746666a21.824 21.824 0 0 0 0 43.626667h152.746666v65.472h-152.746666a21.824 21.824 0 0 0 0 43.626666h140.202666l-151.936 124.992a21.824 21.824 0 1 0 27.712 33.706667l159.637334-131.306667L706.133333 577.066667a21.824 21.824 0 1 0 27.733334-33.706667l-151.957334-124.970667h138.090667a21.824 21.824 0 0 0 0-43.626666h-152.746667z"  horiz-adv-x="1024" />

    
    <glyph glyph-name="daishouhuo3" unicode="&#58946;" d="M114.133333 405.333333l-14.656-22.378666a21.333333 21.333333 0 0 1-3.477333-11.690667V170.666667a21.333333 21.333333 0 0 1 21.333333-21.333334h42.794667v-42.666666H117.333333a64 64 0 0 0-64 64v200.597333a64 64 0 0 0 10.453334 35.072l134.101333 204.736A64 64 0 0 0 251.434667 640h144.746666A149.376 149.376 0 0 0 544 768h277.333333a149.333333 149.333333 0 0 0 149.333334-149.333333v-362.666667a149.333333 149.333333 0 0 0-149.333334-149.333333v42.666666a106.666667 106.666667 0 0 1 106.666667 106.666667V618.666667a106.666667 106.666667 0 0 1-106.666667 106.666666h-277.333333a106.666667 106.666667 0 0 1-106.666667-106.666666v-469.333334h231.36v-42.666666h-338.773333v42.666666H394.666667V597.333333h-64v-170.666666a64 64 0 0 0-64-64h-170.666667v42.666666h18.133333z m0 0h152.533334a21.333333 21.333333 0 0 1 21.333333 21.333334v170.666666h-36.565333a21.333333 21.333333 0 0 1-17.856-9.642666L114.133333 405.333333zM245.333333 0a106.666667 106.666667 0 1 0 0 213.333333 106.666667 106.666667 0 0 0 0-213.333333z m0 42.666667a64 64 0 1 1 0 128 64 64 0 0 1 0-128zM757.333333 0a106.666667 106.666667 0 1 0 0 213.333333 106.666667 106.666667 0 0 0 0-213.333333z m0 42.666667a64 64 0 1 1 0 128 64 64 0 0 1 0-128z"  horiz-adv-x="1024" />

    
    <glyph glyph-name="huiyuan" unicode="&#58947;" d="M86.186667 463.424a21.290667 21.290667 0 0 0 2.538666 17.450667l166.805334 259.477333A106.666667 106.666667 0 0 0 345.258667 789.333333h333.482666a106.666667 106.666667 0 0 0 89.728-48.981333l166.826667-259.477333a21.333333 21.333333 0 0 0-2.56-26.325334L594.986667 31.402667a106.666667 106.666667 0 0 0-166.357334-0.469334L136.533333 392.746667l-45.589333 55.893333a21.248 21.248 0 0 0-4.778667 14.784z m804.885333 7.317333l-158.506667 246.528A64 64 0 0 1 678.762667 746.666667H345.258667a64 64 0 0 1-53.845334-29.397334L130.773333 467.349333l38.890667-47.701333 292.16-361.898667a64 64 0 0 1 99.84 0.277334l329.386667 412.714666z m-152.64 39.466667a21.333333 21.333333 0 0 0 33.706667-26.176L577.92 234.24a85.333333 85.333333 0 0 0-132.586667-2.645333l-204.373333 242.218666a21.333333 21.333333 0 1 0 32.597333 27.52l204.373334-242.218666a42.666667 42.666667 0 0 1 66.304 1.322666l194.197333 249.770667z"  horiz-adv-x="1024" />

    
    <glyph glyph-name="weishiyong" unicode="&#58948;" d="M896 554.666667v64a106.666667 106.666667 0 0 1-106.666667 106.666666h-128v-170.666666h234.666667z m0-42.666667H661.333333v-194.773333a42.666667 42.666667 0 0 0-66.346666-35.498667l-82.837334 55.296-83.178666-55.381333A42.666667 42.666667 0 0 0 362.666667 317.162667V512H128v-362.666667a106.666667 106.666667 0 0 1 106.666667-106.666666h554.666666a106.666667 106.666667 0 0 1 106.666667 106.666666V512zM618.666667 725.333333H405.333333v-408.170666l83.178667 55.381333a42.666667 42.666667 0 0 0 47.317333-0.021333L618.666667 317.226667V725.333333zM362.666667 725.333333h-128a106.666667 106.666667 0 0 1-106.666667-106.666666v-64h234.666667V725.333333z m-128 42.666667h554.666666a149.333333 149.333333 0 0 0 149.333334-149.333333v-469.333334a149.333333 149.333333 0 0 0-149.333334-149.333333H234.666667a149.333333 149.333333 0 0 0-149.333334 149.333333V618.666667a149.333333 149.333333 0 0 0 149.333334 149.333333zM202.666667 384a21.333333 21.333333 0 0 0 0 42.666667h85.333333a21.333333 21.333333 0 0 0 0-42.666667h-85.333333z"  horiz-adv-x="1024" />

    
    <glyph glyph-name="pingjia" unicode="&#58949;" d="M490.816 197.866667a21.354667 21.354667 0 0 0-4.906667-2.986667l-176.938666-78.442667c-50.133333-19.797333-89.109333 18.773333-70.549334 69.802667l0.917334 2.176 84.138666 170.090667a21.333333 21.333333 0 0 0 3.434667 5.013333c0.896 1.493333 1.984 2.88 3.264 4.16l422.378667 422.4a64 64 0 0 0 90.496 0l75.434666-75.434667a64 64 0 0 0 0-90.517333L496.106667 201.749333a21.333333 21.333333 0 0 0-5.290667-3.882666z m-130.24 139.413333l-82.432-166.656c-5.461333-15.829333-0.234667-20.586667 14.336-14.826667l172.928 76.650667-104.832 104.832z m135.530667-75.178667l316.8 316.778667-105.6 105.6-316.8-316.8 105.6-105.6z m346.944 346.944l45.269333 45.269334a21.333333 21.333333 0 0 1 0 30.165333L812.885333 759.893333a21.333333 21.333333 0 0 1-30.165333 0L737.472 714.666667l105.6-105.6zM896 441.728a21.333333 21.333333 0 0 0 42.666667 0V106.666667a149.333333 149.333333 0 0 0-149.333334-149.333334H234.666667a149.333333 149.333333 0 0 0-149.333334 149.333334V661.333333a149.333333 149.333333 0 0 0 149.333334 149.333334h338.496a21.333333 21.333333 0 1 0 0-42.666667H234.666667a106.666667 106.666667 0 0 1-106.666667-106.666667v-554.666666a106.666667 106.666667 0 0 1 106.666667-106.666667h554.666666a106.666667 106.666667 0 0 1 106.666667 106.666667V441.728z"  horiz-adv-x="1024" />

    
    <glyph glyph-name="qiandao" unicode="&#58951;" d="M704 725.333333H320v-53.333333a21.333333 21.333333 0 0 0-42.666667 0V725.333333h-42.666666a106.666667 106.666667 0 0 1-106.666667-106.666666v-85.333334h768v85.333334a106.666667 106.666667 0 0 1-106.666667 106.666666h-42.666666v-53.333333a21.333333 21.333333 0 0 0-42.666667 0V725.333333z m42.666667 42.666667h42.666666a149.333333 149.333333 0 0 0 149.333334-149.333333v-512a149.333333 149.333333 0 0 0-149.333334-149.333334H234.666667a149.333333 149.333333 0 0 0-149.333334 149.333334V618.666667a149.333333 149.333333 0 0 0 149.333334 149.333333h42.666666V800a21.333333 21.333333 0 0 0 42.666667 0V768h384V800a21.333333 21.333333 0 0 0 42.666667 0V768z m149.333333-277.333333H128v-384a106.666667 106.666667 0 0 1 106.666667-106.666667h554.666666a106.666667 106.666667 0 0 1 106.666667 106.666667V490.666667zM327.210667 253.696a21.333333 21.333333 0 0 0 28.245333 32l98.048-86.549333a21.333333 21.333333 0 0 1 29.866667 1.642666l179.882666 197.568a21.333333 21.333333 0 0 0 31.552-28.714666l-179.861333-197.568a64 64 0 0 0-89.664-4.906667l-98.069333 86.528z"  horiz-adv-x="1024" />

    
    <glyph glyph-name="zhuanchu" unicode="&#58952;" d="M341.333333 725.333333v-682.666666h490.666667a106.666667 106.666667 0 0 1 106.666667 106.666666v56.490667a21.333333 21.333333 0 0 0 42.666666 0V149.333333a149.333333 149.333333 0 0 0-149.333333-149.333333H192a149.333333 149.333333 0 0 0-149.333333 149.333333v126.506667l17.813333 2.986667a106.709333 106.709333 0 0 1 0 210.346666L42.666667 492.16V618.666667a149.333333 149.333333 0 0 0 149.333333 149.333333h640a149.333333 149.333333 0 0 0 149.333333-149.333333v-38.741334a21.333333 21.333333 0 1 0-42.666666 0V618.666667a106.666667 106.666667 0 0 1-106.666667 106.666666H341.333333z m-42.666666-682.666666V725.333333H192a106.666667 106.666667 0 0 1-106.666667-106.666666v-91.52a149.418667 149.418667 0 0 0 0-286.293334V149.333333a106.666667 106.666667 0 0 1 106.666667-106.666666h106.666667z m617.92 362.666666l-90.453334 112.896a21.333333 21.333333 0 1 0 33.28 26.666667l116.629334-145.514667c3.584-4.48 5.077333-9.941333 4.608-15.253333a21.269333 21.269333 0 0 0-4.608-15.232l-116.629334-145.536a21.333333 21.333333 0 1 0-33.28 26.666667l90.24 112.64H522.666667a21.333333 21.333333 0 0 0 0 42.666666h393.92z"  horiz-adv-x="1024" />

    
    <glyph glyph-name="zhuanru" unicode="&#58953;" d="M341.333333 725.333333v-682.666666h490.666667a106.666667 106.666667 0 0 1 106.666667 106.666666v56.490667a21.333333 21.333333 0 0 0 42.666666 0V149.333333a149.333333 149.333333 0 0 0-149.333333-149.333333H192a149.333333 149.333333 0 0 0-149.333333 149.333333v126.506667l17.813333 2.986667a106.709333 106.709333 0 0 1 0 210.346666L42.666667 492.16V618.666667a149.333333 149.333333 0 0 0 149.333333 149.333333h640a149.333333 149.333333 0 0 0 149.333333-149.333333v-38.741334a21.333333 21.333333 0 1 0-42.666666 0V618.666667a106.666667 106.666667 0 0 1-106.666667 106.666666H341.333333z m-42.666666-682.666666V725.333333H192a106.666667 106.666667 0 0 1-106.666667-106.666666v-91.52a149.418667 149.418667 0 0 0 0-286.293334V149.333333a106.666667 106.666667 0 0 1 106.666667-106.666666h106.666667z m202.773333 343.466666c0 4.629333 1.536 9.322667 4.693333 13.226667l116.608 145.557333a21.333333 21.333333 0 0 0 33.301334-26.666666L565.589333 405.333333H949.333333a21.333333 21.333333 0 0 0 0-42.666666H565.802667l90.24-112.64a21.333333 21.333333 0 1 0-33.28-26.666667l-116.629334 145.536a21.248 21.248 0 0 0-4.693333 12.949333 21.589333 21.589333 0 0 0 0 4.266667z"  horiz-adv-x="1024" />

    
    <glyph glyph-name="shouhuodizhiyebianji" unicode="&#58954;" d="M896 399.104a25.6 25.6 0 0 0 51.2 0V128a179.2 179.2 0 0 0-179.2-179.2H256a179.2 179.2 0 0 0-179.2 179.2V640a179.2 179.2 0 0 0 179.2 179.2h313.1392a25.6 25.6 0 0 0 0-51.2H256a128 128 0 0 1-128-128v-512a128 128 0 0 1 128-128h512a128 128 0 0 1 128 128V399.104z m-5.9392 373.5296a25.6 25.6 0 1 0 37.4784-34.8672L547.2 328.9088a25.6 25.6 0 0 0-37.4784 34.8672L890.0608 772.6336z"  horiz-adv-x="1024" />

    
    <glyph glyph-name="dingdan" unicode="&#58956;" d="M704 704a106.666667 106.666667 0 0 0 106.666667-106.666667v-469.333333a106.666667 106.666667 0 0 0-106.666667-106.666667H320a106.666667 106.666667 0 0 0-106.666667 106.666667V597.333333a106.666667 106.666667 0 0 0 106.666667 106.666667 21.333333 21.333333 0 1 1 0 42.666667 149.333333 149.333333 0 0 1-149.333333-149.333334v-469.333333a149.333333 149.333333 0 0 1 149.333333-149.333333h384a149.333333 149.333333 0 0 1 149.333333 149.333333V597.333333a149.333333 149.333333 0 0 1-149.333333 149.333334 21.333333 21.333333 0 0 1 0-42.666667zM320 341.333333a21.333333 21.333333 0 0 0 0 42.666667h384a21.333333 21.333333 0 0 0 0-42.666667H320z m0 128a21.333333 21.333333 0 0 0 0 42.666667h384a21.333333 21.333333 0 0 0 0-42.666667H320z m0-256a21.333333 21.333333 0 0 0 0 42.666667h384a21.333333 21.333333 0 0 0 0-42.666667H320zM405.333333 704h213.333334a21.333333 21.333333 0 0 1 0 42.666667H405.333333a21.333333 21.333333 0 0 1 0-42.666667z"  horiz-adv-x="1024" />

    
    <glyph glyph-name="youhuiquan" unicode="&#58957;" d="M850.204444 420.408889a28.444444 28.444444 0 0 1 0 56.888889h-184.32l202.524445 166.684444a29.098667 29.098667 0 1 1-36.977778 44.942222l-212.764444-174.933333-212.764445 174.933333A28.444444 28.444444 0 1 1 369.777778 645.404444l202.524444-166.684444h-187.733333a28.444444 28.444444 0 0 1 0-56.888889h203.662222v-87.324444h-203.662222a28.444444 28.444444 0 0 1 0-56.888889h203.662222V99.555556a28.444444 28.444444 0 1 1 56.888889 0v175.502222h203.662222a28.444444 28.444444 0 0 1 0 56.888889h-202.24v88.462222zM1227.946667 524.231111l23.608889 3.982222V696.888889a199.111111 199.111111 0 0 1-199.111112 199.111111H199.111111a199.111111 199.111111 0 0 1-199.111111-199.111111v-168.675556l23.608889-3.982222a142.222222 142.222222 0 0 0 0-280.462222l-23.608889-3.982222V71.111111a199.111111 199.111111 0 0 1 199.111111-199.111111h853.333333a199.111111 199.111111 0 0 1 199.111112 199.111111v168.675556l-23.608889 3.982222a142.222222 142.222222 0 0 0 0 280.462222zM1052.444444 384a199.111111 199.111111 0 0 1 142.222223-190.862222V71.111111a142.222222 142.222222 0 0 0-142.222223-142.222222H199.111111a142.222222 142.222222 0 0 0-142.222222 142.222222v122.026667a199.111111 199.111111 0 0 1 0 381.724444V696.888889a142.222222 142.222222 0 0 0 142.222222 142.222222h853.333333a142.222222 142.222222 0 0 0 142.222223-142.222222v-122.026667A199.111111 199.111111 0 0 1 1052.444444 384z"  horiz-adv-x="1251" />

    
    <glyph glyph-name="huanyihuan" unicode="&#58963;" d="M838.695385 521.846154A354.619077 354.619077 0 0 1 512 738.461538a354.461538 354.461538 0 1 1 0-708.923076 354.579692 354.579692 0 0 1 330.161231 225.20123 39.384615 39.384615 0 1 0 73.334154-28.750769A433.309538 433.309538 0 0 0 512-49.230769C272.738462-49.230769 78.769231 144.738462 78.769231 384S272.738462 817.230769 512 817.230769c144.423385 0 275.140923-71.286154 354.461538-183.965538V718.769231a39.384615 39.384615 0 0 0 78.769231 0v-236.307693a39.266462 39.266462 0 0 0-39.384615-39.384615h-196.923077a39.384615 39.384615 0 0 0 0 78.769231h129.772308z"  horiz-adv-x="1024" />

    
    <glyph glyph-name="shimingrenzheng" unicode="&#58972;" d="M449.530286 318.836571l290.102857 289.022858c9.389714 9.355429 24.585143 9.325714 33.940571-0.062858 9.355429-9.390857 9.325714-24.586286-0.062857-33.941714L466.684571 268.171429l-0.030857-0.030858c-9.317714-9.282286-24.350857-9.325714-33.722285-0.153142L252.390857 443.956571c-9.491429 9.251429-9.686857 24.445714-0.434286 33.938286 9.251429 9.491429 24.445714 9.686857 33.938286 0.434286l163.634286-159.492572z m511.515428 65.278858c0.037714-0.726857 0.042286-1.461714 0.013715-2.202286-2.094857-53.195429-11.216-100.028571-27.513143-140.445714-0.954286-2.365714-5.717714-14.504-7.205715-18.213715-3.451429-8.603429-6.693714-16.270857-10.288-24.179428-9.486857-20.873143-20.395429-41.022857-33.851428-61.557715-35.042286-53.482286-83.862857-104.043429-150.857143-151.296-57.744-40.728-127.466286-77.768-210.524571-110.561142a23.938286 23.938286 0 0 0-8.758858-1.683429 23.933714 23.933714 0 0 0-8.945142 1.682286c-83.058286 32.793143-152.780571 69.834286-210.525715 110.562285-66.994286 47.251429-115.813714 97.813714-150.857143 151.294858-13.454857 20.534857-24.363429 40.685714-33.851428 61.558857-3.593143 7.908571-6.835429 15.574857-10.285714 24.179428-1.489143 3.709714-6.251429 15.846857-7.206858 18.212572-16.251429 40.304-25.366857 86.987429-27.494857 139.998857a24.075429 24.075429 0 0 0-0.608 5.392v400c0 3.019429 0.557714 5.908571 1.576 8.571428 1.822857 9.385143 9.193143 17.158857 19.161143 19.020572L488.297143 890.123429a129.142857 129.142857 0 0 0 47.408 0l405.273143-75.674286c11.318857-2.114286 19.288-11.851429 19.589714-22.913143 0.377143-1.690286 0.576-3.446857 0.576-5.250286v-400c0-0.731429-0.033143-1.456-0.097143-2.171428z m-47.870857 0.912A24.393143 24.393143 0 0 0 913.142857 386.285714V770.817143L526.893714 842.937143a81.142857 81.142857 0 0 1-29.787428 0L110.285714 770.709714v-382.626285c0.307429-1.384 0.496-2.816 0.553143-4.282286 1.888-47.954286 9.96-89.396571 24.067429-124.384 1.060571-2.628571 5.845714-14.822857 7.238857-18.294857 3.2-7.979429 6.170286-15.002286 9.435428-22.186286 8.514286-18.731429 18.260571-36.737143 30.301715-55.113143 31.736-48.434286 76.322286-94.611429 138.373714-138.377143 52.514286-37.04 115.992-71.100571 191.710857-101.638857 75.718857 30.538286 139.196571 64.598857 191.712 101.638857 62.051429 43.765714 106.638857 89.942857 138.373714 138.377143 12.041143 18.377143 21.788571 36.382857 30.302858 55.113143 3.265143 7.184 6.234286 14.206857 9.434285 22.186286 1.394286 3.474286 6.179429 15.666286 7.238857 18.294857 14.107429 34.987429 22.179429 76.430857 24.068572 124.384 0.014857 0.411429 0.041143 0.820571 0.077714 1.226286z"  horiz-adv-x="1024" />

    
    <glyph glyph-name="quanxuan1" unicode="&#58886;" d="M378.297 227.5l361.116 361.116 45.113-45.113L423.41 182.387zM242.84 362.949l45.112 45.113 180.594-180.593-45.113-45.113zM512 830.9c246.4 0 446.9-200.5 446.9-446.9S758.4-62.9 512-62.9 65.1 137.6 65.1 384 265.6 830.9 512 830.9m0 63.8C229.9 894.7 1.3 666.1 1.3 384s228.7-510.8 510.8-510.8 510.8 228.7 510.8 510.8S794.1 894.7 512 894.7z"  horiz-adv-x="1024" />

    
    <glyph glyph-name="daipinglun" unicode="&#58889;" d="M490.689648 190.060075 281.960767 190.060075c-15.706727 0-28.485775-12.8384-28.485775-28.618804s12.779048-28.618804 28.485775-28.618804L490.689648 132.822466c15.706727 0 28.484751 12.8384 28.484751 28.618804S506.396375 190.060075 490.689648 190.060075zM657.372925 355.603389 281.960767 355.603389c-15.706727 0-28.485775-12.827143-28.485775-28.594245 0-15.780405 12.779048-28.618804 28.485775-28.618804l375.412159 0c15.70775 0 28.486798 12.8384 28.486798 28.618804C685.859723 342.776246 673.080675 355.603389 657.372925 355.603389zM281.960767 463.958212l375.412159 0c15.70775 0 28.486798 12.8384 28.486798 28.618804 0 15.767102-12.779048 28.594245-28.486798 28.594245L281.960767 521.171262c-15.706727 0-28.485775-12.827143-28.485775-28.594245C253.474992 476.796612 266.25404 463.958212 281.960767 463.958212zM421.266509-88.361075l-163.943886 0c-71.14434 0-129.024585 58.213843-129.024585 129.767506L128.298038 617.523727c0 71.553663 57.880245 129.767506 129.024585 129.767506l424.664909 0c71.157643 0 129.048121-58.213843 129.048121-129.767506l0-290.526863-33.727149 0 0 290.526863c0 52.956096-42.760896 96.040357-95.320972 96.040357L257.322623 713.564084c-52.547797 0-95.297436-43.084261-95.297436-96.040357L162.025187 41.40643c0-52.957119 42.74964-96.040357 95.297436-96.040357l163.943886 0L421.266509-88.361075zM547.156708-162.298018 417.562141-162.298018 417.562141-14.559209l386.256134 380.193045 133.88529-134.771473L547.156708-162.298018zM451.28929-128.570869l81.83175 0 357.042789 359.433232-86.612637 87.184665L451.28929-28.684928 451.28929-128.570869z"  horiz-adv-x="1024" />

    
    <glyph glyph-name="quanbushangpin" unicode="&#58892;" d="M798.10618 603.335451l-76.966952 0c-33.222659 102.322433-112.962771 165.670204-209.151507 165.670204-96.18362 0-175.898149-63.34777-209.147414-165.670204l-76.940346 0c-43.245943 0-78.422094-35.877115-78.422094-80.028685l0-442.602444c0-44.094264 35.171034-79.958076 78.422094-79.958076l572.20622 0c41.518602 0 75.209936 33.112142 77.900208 74.741261 0.10847 0.933255 0.51984 1.704828 0.51984 2.638083l0 2.579755 0 21.198811L876.526227 523.306766C876.526227 567.463452 841.3511 603.335451 798.10618 603.335451M511.98772 711.137689c67.934229 0 122.713856-39.140439 151.573137-107.802238L360.445282 603.335451C389.304564 671.99725 444.057585 711.137689 511.98772 711.137689M794.34246 52.971701 229.662657 52.971701c-16.996093 0-30.782074 14.171768-30.782074 31.579229L198.880583 519.491881c0 17.407462 13.785981 31.549553 30.782074 31.549553l61.012585 0c-2.772136-17.886369-4.148483-35.737946-4.148483-53.255924 0-13.785981 0.907673-27.785833 2.720971-42.630936-14.417361-9.414417-23.203468-25.463951-23.203468-42.98193 0-28.255531 22.572088-51.266617 50.332339-51.266617 27.702945 0 50.302663 23.011086 50.302663 51.266617 0 17.390066-8.81476 33.537837-23.230074 42.98193-2.27788 15.047718-3.377934 29.02608-3.377934 42.630936 0 17.820877 1.647523 35.71134 4.889357 53.255924L679.018921 551.041434c3.237741-17.461697 4.885264-35.352159 4.885264-53.255924 0-13.811564-1.121544-27.951609-3.403516-43.134403-13.974269-9.475815-22.490224-25.469068-22.490224-42.478464 0-28.255531 22.546505-51.266617 50.28015-51.266617 27.760251 0 50.328245 23.011086 50.328245 51.266617 0 17.84646-9.006118 34.076096-23.805172 43.411719 1.757017 14.494109 2.606361 28.364001 2.606361 42.202171 0 17.60189-1.370207 35.44835-4.091178 53.255924l61.012585 0c16.944927 0 30.725792-14.141068 30.725792-31.549553l0-435.053514C825.016063 67.086164 811.260781 52.971701 794.34246 52.971701"  horiz-adv-x="1024" />

    
    <glyph glyph-name="iconset0325" unicode="&#59104;" d="M234.666667 426.666667 192 426.666667c-12.8 0-21.333333-8.533333-21.333333-21.333333 0-12.8 8.533333-21.333333 21.333333-21.333333l42.666667 0c12.8 0 21.333333 8.533333 21.333333 21.333333C256 418.133333 247.466667 426.666667 234.666667 426.666667zM704 384l42.666667 0c12.8 0 21.333333 8.533333 21.333333 21.333333 0 12.8-8.533333 21.333333-21.333333 21.333333l-42.666667 0c-12.8 0-21.333333-8.533333-21.333333-21.333333C682.666667 394.666667 691.2 384 704 384zM234.666667 42.666667 192 42.666667c-12.8 0-21.333333-8.533333-21.333333-21.333333 0-12.8 8.533333-21.333333 21.333333-21.333333l42.666667 0c12.8 0 21.333333 8.533333 21.333333 21.333333C256 34.133333 247.466667 42.666667 234.666667 42.666667zM362.666667 42.666667l-42.666667 0c-12.8 0-21.333333-8.533333-21.333333-21.333333 0-12.8 8.533333-21.333333 21.333333-21.333333l42.666667 0c12.8 0 21.333333 8.533333 21.333333 21.333333C384 34.133333 375.466667 42.666667 362.666667 42.666667zM490.666667 42.666667l-42.666667 0c-12.8 0-21.333333-8.533333-21.333333-21.333333 0-12.8 8.533333-21.333333 21.333333-21.333333l42.666667 0c12.8 0 21.333333 8.533333 21.333333 21.333333C512 34.133333 503.466667 42.666667 490.666667 42.666667zM789.333333 234.666667c-12.8 0-21.333333-8.533333-21.333333-21.333333 0-12.8 8.533333-21.333333 21.333333-21.333333 12.8 0 21.333333 8.533333 21.333333 21.333333C810.666667 226.133333 802.133333 234.666667 789.333333 234.666667zM746.666667 42.666667l-42.666667 0c-12.8 0-21.333333-8.533333-21.333333-21.333333 0-12.8 8.533333-21.333333 21.333333-21.333333l42.666667 0c12.8 0 21.333333 8.533333 21.333333 21.333333C768 34.133333 759.466667 42.666667 746.666667 42.666667zM896 341.333333l0 85.333333 0 85.333333c0 46.933333-38.4 85.333333-85.333333 85.333333l-29.866667 0-51.2 192c-12.8 44.8-59.733333 72.533333-104.533333 59.733333L194.133333 736C147.2 725.333333 121.6 678.4 132.266667 631.466667L142.933333 597.333333 128 597.333333c-46.933333 0-85.333333-38.4-85.333333-85.333333l0-85.333333 0-341.333333 0-85.333333c0-46.933333 38.4-85.333333 85.333333-85.333333l682.666667 0c46.933333 0 85.333333 38.4 85.333333 85.333333l0 85.333333c46.933333 0 85.333333 38.4 85.333333 85.333333l0 85.333333C981.333333 302.933333 942.933333 341.333333 896 341.333333zM810.666667 554.666667c23.466667 0 42.666667-19.2 42.666667-42.666667l0-12.8c-12.8 6.4-27.733333 12.8-42.666667 12.8l-8.533333 0-10.666667 42.666667L810.666667 554.666667zM731.733333 614.4l27.733333-102.4L345.6 512 731.733333 614.4zM204.8 695.466667l430.933333 113.066667c23.466667 6.4 46.933333-6.4 51.2-29.866667l10.666667-40.533333-512-136.533333-10.666667 40.533333C168.533333 665.6 181.333333 689.066667 204.8 695.466667zM85.333333 512c0 23.466667 19.2 42.666667 42.666667 42.666667l25.6 0 10.666667-42.666667L128 512c-14.933333 0-29.866667-4.266667-42.666667-12.8L85.333333 512zM853.333333 0c0-23.466667-19.2-42.666667-42.666667-42.666667L128-42.666667c-23.466667 0-42.666667 19.2-42.666667 42.666667L85.333333 426.666667c0 23.466667 19.2 42.666667 42.666667 42.666667l682.666667 0c23.466667 0 42.666667-19.2 42.666667-42.666667l0-85.333333-85.333333 0c-46.933333 0-85.333333-38.4-85.333333-85.333333l0-85.333333c0-46.933333 38.4-85.333333 85.333333-85.333333l85.333333 0L853.333333 0zM938.666667 170.666667c0-23.466667-19.2-42.666667-42.666667-42.666667l-128 0c-23.466667 0-42.666667 19.2-42.666667 42.666667l0 85.333333c0 23.466667 19.2 42.666667 42.666667 42.666667l128 0c23.466667 0 42.666667-19.2 42.666667-42.666667L938.666667 170.666667zM618.666667 42.666667l-42.666667 0c-12.8 0-21.333333-8.533333-21.333333-21.333333 0-12.8 8.533333-21.333333 21.333333-21.333333l42.666667 0c12.8 0 21.333333 8.533333 21.333333 21.333333C640 34.133333 631.466667 42.666667 618.666667 42.666667zM490.666667 426.666667l-42.666667 0c-12.8 0-21.333333-8.533333-21.333333-21.333333 0-12.8 8.533333-21.333333 21.333333-21.333333l42.666667 0c12.8 0 21.333333 8.533333 21.333333 21.333333C512 418.133333 503.466667 426.666667 490.666667 426.666667zM618.666667 426.666667l-42.666667 0c-12.8 0-21.333333-8.533333-21.333333-21.333333 0-12.8 8.533333-21.333333 21.333333-21.333333l42.666667 0c12.8 0 21.333333 8.533333 21.333333 21.333333C640 418.133333 631.466667 426.666667 618.666667 426.666667zM362.666667 426.666667l-42.666667 0c-12.8 0-21.333333-8.533333-21.333333-21.333333 0-12.8 8.533333-21.333333 21.333333-21.333333l42.666667 0c12.8 0 21.333333 8.533333 21.333333 21.333333C384 418.133333 375.466667 426.666667 362.666667 426.666667z"  horiz-adv-x="1024" />

    
    <glyph glyph-name="icon" unicode="&#58984;" d="M501.960855 485.244892M160.745543 484.024088M712.800817 570.117908M759.381715-60.363554 261.435803-60.363554c-58.464553 0-82.805938 41.947368-87.536682 64.12446-2.585895 14.547321-60.278875 337.90287-72.228021 426.628634-4.355191 32.42141 1.718131 58.302871 17.995863 76.93216 15.47853 17.669428 39.897685 27.41335 68.766177 27.41335 6.67298 0 11.973706-0.522909 14.860453-0.892323l614.229313 0c2.885723 0.37453 8.185426 0.892323 14.855336 0.892323 28.874631 0 53.289694-9.743922 68.744687-27.425629 16.306384-18.61701 22.354124-44.49847 17.998933-76.91988-11.924587-88.713484-69.616544-412.081313-72.053036-425.806919C842.188676-18.416186 817.848315-60.363554 759.381715-60.363554L759.381715-60.363554zM188.434162 483.767238c-8.086166 0-22.772656-1.309832-30.388101-10.004865-7.715729-8.812713-7.443529-24.7548-5.848195-36.58729 11.774161-87.63492 71.130014-420.283112 71.729671-423.630347 1.192152-4.40738 8.188496-22.934339 37.508265-22.934339l497.944889 0c32.257681 0 37.462217 22.785959 37.655621 23.756053 0.451278 2.526543 59.808154 335.174736 71.556733 422.809655 1.597381 11.83249 1.868557 27.774577-5.820566 36.58729-7.619538 8.698103-22.300912 10.004865-30.393217 10.004865-4.852518 0-8.283664-0.459464-8.954953-0.561795-1.319042-0.208754-2.788509-0.336668-4.111644-0.336668L201.500758 482.869798c-1.417279 0-2.837628 0.127913-4.254907 0.361227C196.748525 483.302657 193.287703 483.767238 188.434162 483.767238L188.434162 483.767238zM188.434162 483.767238M260.091178 348.137211c0-13.94357 5.742794-27.801183 15.601326-37.660738 9.860579-9.860579 23.718191-15.597233 37.660738-15.597233 13.942547 0 27.801183 5.736655 37.660738 15.597233 9.859555 9.859555 15.597233 23.717168 15.597233 37.660738 0 13.942547-5.737678 27.800159-15.597233 37.659715-9.859555 9.859555-23.717168 15.597233-37.660738 15.597233-13.942547 0-27.800159-5.737678-37.660738-15.597233C265.833973 375.93737 260.091178 362.079758 260.091178 348.137211L260.091178 348.137211zM260.091178 348.137211M654.209374 348.137211c0-13.94357 5.737678-27.801183 15.597233-37.660738 9.857509-9.860579 23.717168-15.597233 37.659715-15.597233 13.941524 0 27.801183 5.736655 37.660738 15.597233 9.857509 9.859555 15.597233 23.717168 15.597233 37.660738 0 13.942547-5.739724 27.800159-15.597233 37.659715-9.859555 9.859555-23.719214 15.597233-37.660738 15.597233-13.942547 0-27.802206-5.737678-37.659715-15.597233C659.947052 375.93737 654.209374 362.079758 654.209374 348.137211L654.209374 348.137211zM654.209374 348.137211M737.654878 569.417967c-14.08581 0-25.484418 11.411911-25.484418 25.486464 0 102.431927-90.521666 185.771007-201.772446 185.771007-111.25385 0-201.74891-83.33908-201.74891-185.771007 0-14.074553-11.399631-25.486464-25.486464-25.486464-14.087856 0-25.487487 11.411911-25.487487 25.486464 0 130.543172 113.368 236.743936 252.722862 236.743936 139.352815 0 252.743328-106.199741 252.743328-236.743936C763.142365 580.829877 751.744781 569.417967 737.654878 569.417967L737.654878 569.417967zM737.654878 569.417967"  horiz-adv-x="1024" />

    
    <glyph glyph-name="daipinglun1" unicode="&#58888;" d="M866.637 779.865H157.304c-51.461 0-93.333-41.872-93.333-93.333v-485.333c0-51.461 41.872-93.333 93.333-93.333h88.266l119.729-119.729 119.729 119.729h381.609c51.461 0 93.333 41.872 93.333 93.333V686.531c0.001 51.461-41.872 93.334-93.333 93.334z m56-578.667c0-30.88-25.12-56-56-56H469.569l-104.27-104.271-104.271 104.271H157.304c-30.88 0-56 25.12-56 56V686.531c0 30.88 25.12 56 56 56h709.333c30.88 0 56-25.12 56-56v-485.333zM719.637 554.306H196.971c-10.309 0-18.667-8.358-18.667-18.667 0-10.309 8.358-18.667 18.667-18.667h522.667c10.309 0 18.667 8.358 18.667 18.667 0 10.309-8.359 18.667-18.668 18.667zM532.971 400.306h-336c-10.309 0-18.667-8.358-18.667-18.667s8.358-18.667 18.667-18.667h336c10.309 0 18.667 8.358 18.667 18.667s-8.359 18.667-18.667 18.667z"  horiz-adv-x="1024" />

    
    <glyph glyph-name="kefurexian" unicode="&#58918;" d="M900.656 500.384h-2.96C884.832 700.416 718.096 859.232 514.88 859.232c-203.232 0-369.952-158.816-382.832-358.848h-7.872a51.024 51.024 0 0 1-50.96-50.96v-138.304a51.024 51.024 0 0 1 50.96-50.96h53.376a51.024 51.024 0 0 1 50.96 50.96v138.304a51.024 51.024 0 0 1-50.96 50.96h-1.712c12.8 175.92 159.904 315.168 339.04 315.168 179.12 0 326.24-139.248 339.04-315.168h-6.656a51.024 51.024 0 0 1-50.96-50.96v-138.304a51.024 51.024 0 0 1 50.96-50.96h53.392a51.024 51.024 0 0 1 50.96 50.96v138.304a51.024 51.024 0 0 1-50.96 50.96z m-715.824-50.96v-138.304a7.28 7.28 0 0 0-7.28-7.28H124.176a7.28 7.28 0 0 0-7.28 7.28v138.304c0 4 3.248 7.28 7.28 7.28h53.376c4.016 0 7.28-3.264 7.28-7.28z m723.104-138.304a7.28 7.28 0 0 0-7.28-7.28h-53.392a7.28 7.28 0 0 0-7.28 7.28v138.304c0 4 3.264 7.28 7.28 7.28h53.392c4.016 0 7.28-3.28 7.28-7.28v-138.304zM862.288 188.416c8.4-63.584-20.816-129.104-79.456-163.792a163.68 163.68 0 0 0-113.312-20.064c0.384 49.792-37.056 92.96-87.616 98.528a98.16 98.16 0 0 1-108.56-87.024 97.744 97.744 0 0 1 21.024-72.304 97.824 97.824 0 0 1 76.848-36.864 98.16 98.16 0 0 1 88.32 55.28c48.288-9.376 99.968-2.128 145.536 24.848 72.368 42.816 109.2 122.784 101.056 201.392h-43.84zM625.52-0.688a54.656 54.656 0 0 0-60.352-48.384 54.32 54.32 0 0 0-36.688 20.16 54.288 54.288 0 0 0-11.696 40.208 54.592 54.592 0 0 0 60.368 48.4 54.816 54.816 0 0 0 48.368-60.384z"  horiz-adv-x="1024" />

    
    <glyph glyph-name="daifahuo" unicode="&#59034;" d="M1020 776.9c0 40.2-32.9 72.9-73.1 72.9h-572c-40.3 0-73.1-32.7-73.1-72.9v-120.8c0-2-0.9-3.6-2.6-4.5l-202-106C40.2 515.7 2.9 457 2.9 392.7v-365.6h152.9v-0.2h1.4c13.6-60.7 67.6-106.1 132.3-106.1s118.8 45.4 132.3 106.1h1.7c0.1 0.1 0.1 0.1 0.1 0.2h171.7v-0.2h6.2c13.6-60.7 67.6-106.1 132.4-106.1s118.9 45.5 132.4 106.3H1020V776.9zM289.6-15.7c-39.9 0-72.4 32.5-72.4 72.4 0 39.9 32.5 72.4 72.4 72.4s72.4-32.5 72.4-72.4c0-40-32.5-72.4-72.4-72.4z m444.4 0c-39.9 0-72.4 32.5-72.4 72.4 0 39.9 32.5 72.4 72.4 72.4 39.9 0 72.4-32.5 72.4-72.4 0-40-32.5-72.4-72.4-72.4z m222.5 106.3H865c-15.1 58.5-67.8 102-131 102-63.3 0-116-43.5-131.2-102H420.7c-15.1 58.5-67.8 102-131.1 102s-116-43.5-131.1-102h-92V392.7c0 40.1 23.1 77.1 60.3 96.7l200.7 105.5c23.3 11.6 37.7 35.1 37.7 61.2V776.9c0 5.1 4.5 9.4 9.7 9.4h572c5.2 0 9.7-4.3 9.7-9.4l-0.1-686.3zM352.1 533.2c-17.5 0-31.7-14.2-31.7-31.7v-158.7H161.6c-17.5 0-31.7-14.2-31.7-31.7s14.2-31.7 31.7-31.7H352c17.5 0 31.7 14.2 31.7 31.7V501.5c0.1 17.5-14.1 31.7-31.6 31.7z"  horiz-adv-x="1024" />

    
    <glyph glyph-name="daishouhuo" unicode="&#58890;" d="M290.358-95.084c-37.181 0-72.011 14.636-98.075 41.213-26.241 26.757-40.287 62.26-39.553 99.968 0 37.73 14.472 73.101 40.747 99.641 26.25 26.514 61.206 41.116 98.427 41.116 64.992 0 120.554-44.534 135.114-108.301l2.421-11.517h169.745l2.431 11.555c14.667 63.727 70.229 108.263 135.104 108.263 37.384 0 72.437-14.655 98.704-41.266 26.253-26.597 40.442-61.904 39.955-99.418-0.001-37.717-14.471-73.088-40.746-99.628-26.25-26.517-61.203-41.118-98.423-41.118-62.804 0-117.95 42.664-134.106 103.752l-3.01 11.442H427.477l-3.016-11.444c-16.735-61.379-71.883-104.258-134.103-104.258zM736.21 139.918c-51.711 0-93.781-42.3-93.781-94.292 0-51.994 42.07-94.295 93.781-94.295 51.709 0 93.777 42.301 93.777 94.295 0 51.992-42.068 94.292-93.777 94.292z m-445.852 0c-51.711 0-93.781-42.3-93.781-94.292 0-51.994 42.07-94.295 93.781-94.295 51.712 0 93.783 42.301 93.783 94.295 0.001 51.992-42.071 94.292-93.783 94.292zM172.601 324.021c-12.39 0-22.474 9.894-22.956 22.523 0.002 12.854 10.299 23.382 22.956 23.382h127.718v128.75c0 12.937 10.297 23.462 22.953 23.462 12.442 0 22.953-10.744 22.953-23.462v-151.192c0-12.938-10.297-23.463-22.953-23.463H172.601zM22.953 17.021C10.297 17.021 0 27.316 0 39.971V422.053c0 50.551 21.209 93.18 59.719 120.034l0.163 0.113 0.142 0.141c0.771 0.772 1.571 1.171 2.497 1.632l237.798 119.932V783.052c0 44.13 35.672 80.032 79.519 80.032h547.157c25.897 0 50.225-10.158 68.501-28.604 18.625-18.798 28.748-43.813 28.501-70.436v-719.963c0-12.938-10.297-23.463-22.953-23.463-12.442 0-22.953 10.744-22.953 23.463V764.538c0 29.311-23.384 53.156-52.126 53.156H378.807c-18.533 0-33.611-15.081-33.611-33.618v-134.203c-0.507-1.045-1.03-2.337-1.03-4.124v-1.545c0-0.677 0-1.759-0.087-2.249l-0.423-0.427v-0.481c-0.084-0.122-0.189-0.269-0.276-0.389-0.323-0.448-0.725-1.005-1.032-1.618l-1.544-3.086c-0.299-0.602-0.847-1.709-1.114-1.981l-0.249-0.253-0.177-0.336c-0.149-0.298-0.755-0.689-1.521-1.187a71.33 71.33 0 0 1-0.685-0.446l-1.229-0.614-0.256-0.257c-0.401-0.398-0.817-0.711-1.299-1.072-0.465-0.349-0.982-0.737-1.517-1.236L85.704 503.765l-2.237-1.123-0.168-0.128c-24.812-19.007-37.393-46.078-37.393-80.461v-382.082c0-12.655-10.297-22.95-22.953-22.95z"  horiz-adv-x="1024" />

    
    <glyph glyph-name="quanbushangpin1" unicode="&#58995;" d="M760.832-126.464h-497.664c-96.256 0-174.592 78.336-174.592 174.592V475.648c0 96.256 78.336 174.592 174.592 174.592h497.664c96.256 0 174.592-78.336 174.592-174.592v-427.52c0-96.256-78.336-174.592-174.592-174.592z m-497.664 707.072c-57.856 0-104.96-47.104-104.96-104.96v-427.52c0-57.856 47.104-104.96 104.96-104.96h497.664c57.856 0 104.96 47.104 104.96 104.96V475.648c0 57.856-47.104 104.96-104.96 104.96h-497.664zM710.656 460.288c-19.456 0-34.816 15.872-34.816 34.816v165.888c0 90.112-73.216 163.84-163.84 163.84s-163.84-73.216-163.84-163.84v-165.888c0-19.456-15.872-34.816-34.816-34.816-19.456 0-34.816 15.872-34.816 34.816v165.888c0 128.512 104.96 233.472 233.472 233.472s233.472-104.96 233.472-233.472v-165.888c0-18.944-15.872-34.816-34.816-34.816z"  horiz-adv-x="1024" />

    
    <glyph glyph-name="daifahuo1" unicode="&#58901;" d="M329.318 324.833c15.114 0 27.361 12.268 27.361 27.341V502.149c0 15.114-12.247 27.361-27.361 27.361s-27.341-12.247-27.341-27.361v-122.593h-117.74c-15.135 0-27.361-12.268-27.361-27.382 0-15.073 12.227-27.341 27.361-27.341h145.08zM721.244 214.835c-73.605 0-134.717-54.415-145.285-125.092H448.983c-10.547 70.676-71.66 125.092-145.244 125.092-80.978 0-146.862-65.884-146.862-146.883 0-80.957 65.884-146.862 146.862-146.862 69.652 0 128.143 48.742 143.135 113.91h131.195c14.991-65.188 73.523-113.91 143.155-113.91 80.957 0 146.842 65.905 146.842 146.862 0.02 80.998-65.864 146.883-146.821 146.883zM303.739-24.207c-50.811 0-92.16 41.37-92.16 92.16s41.349 92.16 92.16 92.16 92.16-41.37 92.16-92.16-41.349-92.16-92.16-92.16z m417.505 0c-50.811 0-92.14 41.37-92.14 92.16s41.329 92.16 92.14 92.16c50.77 0 92.14-41.37 92.14-92.16s-41.37-92.16-92.14-92.16zM1003.418 751.186c-2.191 29.635-14.029 54.129-34.243 70.82-33.26 27.464-77.578 25.395-88.023 24.453l-485.028-0.819c-38.953 0-60.908-15.626-72.458-28.754-23.04-26.132-21.914-59.802-21.094-69.12v-93.614l-222.72-117.76c-51.589-22.303-58.88-87.06-59.167-89.825a26.218 26.218 0 0 1-0.143-2.826l-0.061-375.849c0-15.114 12.247-27.341 27.341-27.341 15.114 0 27.361 12.227 27.361 27.32l0.061 373.965c1.004 6.144 6.84 36.311 26.808 44.564a24.372 24.372 0 0 1 2.335 1.085l238.305 125.993a27.361 27.361 0 0 1 14.561 24.207V749.158c0 1.311 0 2.089-0.184 3.359-0.492 5.12-0.041 19.702 7.782 28.426 6.001 6.636 16.486 9.994 31.293 9.994h0.061l486.339 0.819c1.044 0 2.109 0.041 3.133 0.184 0.266 0.02 30.597 2.785 48.62-12.104 8.479-7.004 13.23-17.388 14.479-31.724v-680.12c0-15.094 12.227-27.341 27.341-27.341s27.402 12.206 27.402 27.3V749.157a33.572 33.572 0 0 1-0.102 2.028z"  horiz-adv-x="1024" />

    
    <glyph glyph-name="kefurexian1" unicode="&#59066;" d="M834.42 276.826c-33.684 0-60.986 26.13-60.986 58.358v100.02c0 19.699 10.272 37.03 25.885 47.604C764.348 602.211 649.114 689.971 512 689.971c-137.13 0-252.365-87.76-287.336-207.163 15.613-10.565 25.886-27.904 25.886-47.604v-100.02c0-24.085-15.256-44.74-37.022-53.653 37.998-81.11 111.472-143.944 201.928-170.45 9.638 23.094 42.59 40.197 82.105 40.197 47.067 0 85.244-24.144 85.244-53.921 0-29.785-38.177-53.93-85.244-53.93-39.318 0-72.092 16.932-81.926 39.839-104.717 27.979-189.88 100.078-231.298 194.073-31.21 2.574-55.778 27.328-55.778 57.845v100.02c0 24.975 16.477 46.123 39.529 54.443C206.999 635.522 345.986 743.632 512 743.632c165.998 0 305.002-108.11 343.896-253.985 23.053-8.32 39.546-29.468 39.546-54.443v-100.02c0-32.227-27.32-58.358-61.021-58.358zM355.673 460.994c0 22.304 19.145 40.382 42.753 40.382 23.623 0 42.753-18.078 42.753-40.382 0-22.29-19.13-40.369-42.753-40.369-23.608 0-42.753 18.08-42.753 40.369z m28.33-179.795v31.584h7.455c28.654-32.92 72.01-53.897 120.541-53.897 48.517 0 91.872 20.977 120.525 53.897h7.473v-31.584c-33.179-30.421-78.212-49.24-127.998-49.24-49.803 0-94.833 18.819-127.997 49.24z m198.8 179.795c0 22.304 19.13 40.382 42.754 40.382 23.606 0 42.751-18.078 42.751-40.382 0-22.29-19.145-40.369-42.751-40.369-23.622 0-42.754 18.08-42.754 40.369z"  horiz-adv-x="1024" />

    
    <glyph glyph-name="kefurexian2" unicode="&#59081;" d="M638.293333 16.64c1.109333-5.376 1.706667-10.965333 1.706667-16.64 0-47.146667-40.96-85.333333-91.434667-85.333333h-73.130666C424.917333-85.333333 384-47.146667 384 0s40.96 85.333333 91.434667 85.333333h73.130666c13.141333 0 25.6-2.56 36.949334-7.253333 159.488 29.866667 279.722667 165.12 279.722666 327.253333 0 183.978667-154.837333 333.397333-346.197333 333.397334-191.36 0-346.24-149.418667-346.24-333.397334 0-46.378667 9.813333-91.392 28.629333-132.949333a35.754667 35.754667 0 0 0-18.517333-47.488 37.034667 37.034667 0 0 0-33.621333 1.962667c-4.693333-0.426667-9.386667-0.682667-14.208-0.682667C60.501333 226.133333 0 284.501333 0 356.522667 0 419.413333 46.208 471.893333 107.648 484.181333 145.621333 670.421333 315.477333 810.666667 519.04 810.666667c202.837333 0 372.266667-139.306667 411.008-324.565334 54.485333-16.810667 93.952-66.048 93.952-124.202666 0-69.034667-55.594667-125.525333-125.866667-130.090667-50.645333-103.125333-145.024-182.314667-259.84-215.168z m-334.506666 269.013333a37.12 37.12 0 0 0 12.8 50.517334 36.224 36.224 0 0 0 49.92-12.928c4.821333-8.234667 16.853333-22.784 36.565333-37.76 33.706667-25.6 76.501333-41.045333 130.261333-41.045334s96.554667 15.445333 130.261334 41.045334c19.712 14.976 31.744 29.525333 36.565333 37.76a36.224 36.224 0 0 0 49.92 12.928 37.12 37.12 0 0 0 12.8-50.517334c-9.301333-16-27.392-37.802667-55.466667-59.136C661.461333 191.573333 603.434667 170.666667 533.333333 170.666667c-70.101333 0-128.128 20.906667-174.08 55.850666-28.074667 21.333333-46.165333 43.136-55.466666 59.136z"  horiz-adv-x="1024" />

    
    <glyph glyph-name="daishouhuo1" unicode="&#58993;" d="M230.501992 663.458167v-36.717131H197.864542L146.868526 549.227092h83.633466v-36.717132H120.350598l-87.713148-130.549801v-42.836653h197.864542v-36.717131H32.63745v-228.462152c0-6.119522 2.039841-10.199203 6.119522-14.278884 4.079681-4.079681 8.159363-6.119522 12.239044-6.119522h61.195219c8.159363 73.434263 59.155378 128.50996 118.310757 132.589641v-38.756972C181.545817 141.258964 142.788845 92.302789 142.788845 33.14741c0-59.155378 38.756972-110.151394 87.713147-114.231075V-123.920319c-61.195219 4.079681-112.191235 61.195219-120.350598 134.629482h-61.195219c-14.278884 0-26.517928 6.119522-34.677291 16.318725-8.159363 12.239044-14.278884 26.517928-14.278884 42.836654V386.039841c0 2.039841 2.039841 10.199203 4.079681 12.239043l173.386454 259.059761c2.039841 2.039841 10.199203 8.159363 12.239044 8.159363h40.796813v-2.039841z m512 195.824702V814.406375c-10.199203-8.159363-22.438247-18.358566-30.59761-30.59761-38.756972-44.876494-61.195219-106.071713-61.195219-175.426295 0-67.314741 24.478088-130.549801 61.195219-175.426295 10.199203-12.239044 20.398406-22.438247 30.59761-30.597609v-44.876494c-20.398406 12.239044-38.756972 28.557769-53.035857 48.956175-42.836653 50.996016-71.394422 122.390438-71.394422 201.944223 0 48.956175 10.199203 93.832669 28.557769 134.629482H489.561753c-8.159363 0-16.318725-4.079681-22.438247-10.199203-6.119522-6.119522-10.199203-16.318725-10.199203-26.517928v-658.868526h230.501992c4.079681 44.876494 24.478088 81.593625 55.075697 106.071713v-50.996016c-14.278884-20.398406-24.478088-46.916335-24.478088-75.474104 0-28.557769 8.159363-55.075697 24.478088-75.474103v-50.996016c-28.557769 24.478088-50.996016 63.23506-55.075697 106.071713H367.171315c-8.159363-75.474104-63.23506-134.629482-128.50996-134.629482h-8.159363v38.756972h8.159363c53.035857 0 97.912351 50.996016 97.91235 114.231076 0 63.23506-44.876494 116.270916-97.91235 116.270916h-8.159363v40.796813h8.159363c65.2749 0 120.350598-57.115538 128.50996-134.629482h61.195219V624.701195h-197.864542v36.717132H428.366534V708.334661c0 20.398406 6.119522 38.756972 18.358566 53.035857 12.239044 14.278884 28.557769 22.438247 44.876494 22.438247h177.466135c6.119522 10.199203 14.278884 20.398406 22.438247 28.557769 14.278884 18.358566 32.63745 34.677291 50.996016 46.916335zM230.501992 510.47012h36.717132c10.199203 0 20.398406-10.199203 20.398406-22.438247v-128.509961c0-12.239044-8.159363-22.438247-18.358566-22.438247h-38.756972v-36.717131h38.756972c28.557769 0 50.996016 26.517928 50.996016 59.155378V488.031873c0 32.63745-22.438247 61.195219-50.996016 61.195219h-36.717131v-38.756972zM860.812749 896c12.239044 0 26.517928-2.039841 38.756972-4.079681V855.203187c-12.239044 2.039841-24.478088 4.079681-38.756972 4.079682-42.836653 0-83.633466-16.318725-116.270916-42.836654V859.282869C777.179283 883.760956 817.976096 896 860.812749 896z m-118.310757-942.406375c18.358566-24.478088 44.876494-40.796813 73.434263-40.796812 34.677291 0 63.23506 20.398406 81.593625 53.035856v-55.075697c-22.438247-22.438247-50.996016-34.677291-81.593625-34.677291-26.517928 0-53.035857 10.199203-73.434263 26.517929v50.996015z m0 450.804781c32.63745-26.517928 73.434263-42.836653 116.270916-42.836653 12.239044 0 26.517928 2.039841 38.756972 4.079681v-38.756972c-12.239044-2.039841-24.478088-4.079681-38.756972-4.079681-42.836653 0-81.593625 12.239044-116.270916 36.717131v44.876494z m0-250.900398c20.398406 16.318725 46.916335 26.517928 73.434263 26.517928 30.59761 0 59.155378-12.239044 81.593625-34.677291v-55.075697c-18.358566 30.59761-46.916335 53.035857-81.593625 53.035857-28.557769 0-55.075697-16.318725-73.434263-40.796813v50.996016z m108.111554 442.645418c-2.039841 2.039841-6.119522 10.199203-6.119522 14.278885V781.768924c0 26.517928 32.63745 26.517928 32.63745 0v-163.187251l22.438247-22.438247v-48.956175l-48.956175 48.956175zM897.52988-34.167331c10.199203 18.358566 16.318725 38.756972 16.318726 63.23506 0 22.438247-6.119522 44.876494-16.318726 63.23506v55.075697c24.478088-24.478088 42.836653-59.155378 46.916335-99.952191h50.996016c18.358566 0 32.63745 16.318725 32.63745 38.756972V404.398406c-34.677291-38.756972-79.553785-67.314741-128.50996-77.513944V365.641434c42.836653 10.199203 79.553785 34.677291 110.151395 69.354582 38.756972 44.876494 61.195219 106.071713 61.195219 175.426295s-24.478088 130.549801-61.195219 175.426295C979.123506 820.525896 940.366534 845.003984 897.52988 855.203187V891.920319c50.996016-10.199203 97.912351-38.756972 132.589642-79.553785 42.836653-50.996016 71.394422-122.390438 71.394422-201.944223 0-59.155378-16.318725-114.231076-42.836653-161.147411v-363.091633c0-40.796813-28.557769-75.474104-63.23506-75.474104h-50.996016c-4.079681-40.796813-22.438247-75.474104-46.916335-99.952191v55.075697z m0 581.354582l26.517929-26.517928c16.318725-16.318725 38.756972 12.239044 20.398406 28.557769l-22.438247 22.438247-24.478088 24.478087v-48.956175z"  horiz-adv-x="1105" />

    
    <glyph glyph-name="qianbao" unicode="&#59027;" d="M926.1 610.2l-698 174.1c-11.4 2.9-25.8 0.8-34.2-5.9-8.9-6.9-17.2-17.8-17.2-30.7v-134h-48.3c-35 0-67.8-31.9-67.8-66.9v-507.4c0-35 32.8-59.6 67.8-59.6h771.7c35 0 59.5 24.7 59.5 59.6v524c0 21-12.4 41.6-33.5 46.8zM227.9 742l515.7-128.2H227.8l0.1 128.2z m689.6-697.9c0-10.1-8.5-22.1-22.5-22.1H131.7c-14 0-29 12-29 22.1V557c0 10.1 15 14.6 29 14.6H895c14 0 22.5-4.4 22.5-14.6v-512.9z m0 0M223.6 351.3c-32.1 0-58.1-26.1-58.1-58.1 0-32.1 26.1-58.1 58.1-58.1 32.1 0 58.1 26.1 58.1 58.1s-26.1 58.1-58.1 58.1z m0-84.6c-14.6 0-26.4 11.9-26.4 26.4 0 14.6 11.9 26.4 26.4 26.4 14.6 0 26.4-11.9 26.4-26.4 0-14.5-11.8-26.4-26.4-26.4z m0 0"  horiz-adv-x="1024" />

    
    <glyph glyph-name="qianbao1" unicode="&#58893;" d="M957.5 139.9H771.7c-36.7 0-66.5 29.8-66.5 66.5V320.1c0 36.7 29.8 66.5 66.5 66.5h185.8c36.7 0 66.5-29.8 66.5-66.5v-113.7c0-36.7-29.8-66.5-66.5-66.5zM771.7 341c-11.6 0-21-9.4-21-21v-113.7c0-11.6 9.4-20.9 21-20.9h185.8c11.6 0 20.9 9.4 20.9 20.9V320.1c0 11.6-9.4 21-20.9 21H771.7zM823.6 240.4h-15.3c-12.6 0-22.8 10.2-22.8 22.8 0 12.6 10.2 22.8 22.8 22.8h15.3c12.6 0 22.8-10.2 22.8-22.8 0-12.6-10.2-22.8-22.8-22.8zM851.6-99.2H68.3C30.6-99.2 0-69.8 0-33.5V560c0 36.2 30.6 65.7 68.3 65.7h783.3c37.7 0 68.3-29.5 68.3-65.7v-196.7h-45.5V560c0 11.1-10.2 20.1-22.8 20.1H68.3c-12.6 0-22.8-9-22.8-20.1v-593.5c0-11.1 10.2-20.1 22.8-20.1h783.3c12.6 0 22.8 9 22.8 20.1V148.8h45.5v-182.4c0-36.2-30.6-65.6-68.3-65.6zM190 582.9c-6.1 0-12.1 2.4-16.6 7.2-8.6 9.2-8.2 23.6 1 32.2l53.2 48.7 205 174.8C447.4 858.4 465.3 866 483 867.1c19.1 1.1 36.5-5.4 48.2-18l203.5-172.9c9.6-8.1 10.8-22.5 2.6-32.1-8.1-9.6-22.5-10.7-32.1-2.6L497.9 818c-3.1 3.7-8.9 3.9-12.1 3.7-7.8-0.5-16.5-4.3-23.7-10.5l-219-186.8-37.6-35.4c-4.3-4.1-9.9-6.1-15.5-6.1z"  horiz-adv-x="1024" />

    
    <glyph glyph-name="shezhi" unicode="&#58882;" d="M881 384c0 52.4 32.9 96.8 79 114.5-11 43.2-28 83.9-50.2 121.3C864.6 599.7 810 607.9 773 645c-37 37-45.2 91.7-25.1 136.8C710.4 804 669.7 821 626.5 832c-17.8-46.1-62.2-79-114.5-79-52.4 0-96.8 32.9-114.5 79-43.2-11-83.9-28-121.3-50.2 20.1-45.2 11.9-99.8-25.1-136.8-37-37-91.7-45.2-136.8-25.2C92 582.4 75 541.7 64 498.5c46.1-17.8 79-62.2 79-114.5 0-52.4-32.9-96.8-79-114.5 11-43.2 28-83.9 50.2-121.3C159.4 168.29999999999995 214 160.10000000000002 251 123c37-37 45.2-91.7 25.1-136.8C313.6-36 354.3-53 397.5-64c17.8 46.1 62.2 79 114.5 79 52.4 0 96.8-32.9 114.5-79 43.2 11 83.9 28 121.3 50.2-20.1 45.2-11.9 99.8 25.1 136.8 37 37 91.7 45.2 136.8 25.2C932 185.60000000000002 949 226.29999999999995 960 269.5c-46.1 17.7-79 62.1-79 114.5zM512 261c-67.9 0-123 55.1-123 123s55.1 123 123 123 123-55.1 123-123-55.1-123-123-123z"  horiz-adv-x="1024" />

    
    <glyph glyph-name="shiliangzhinengduixiangx-copy" unicode="&#58883;" d="M476.713514 896h72.925405c118.867027-13.007568 233.029189-74.032432 303.325405-172.004324 31.688649-38.884324 41.236757-92.713514 81.366487-125.370811 55.48973-44.972973 55.766486-137.686486 3.874594-185.565406-24.354595-26.568649-60.471351-34.179459-94.097297-41.79027 0.83027 91.191351-6.227027 182.797838 4.428108 273.574054C786.819459 769.660541 651.623784 852.964324 512.415135 851.718919 372.099459 854.624865 235.243243 771.459459 172.281081 645.95027c12.869189-90.637838 2.767568-182.659459 5.673514-273.989189-36.67027 6.642162-75.96973 16.328649-100.73946 46.633514-47.048649 49.816216-43.727568 137.824865 10.24 181.275675 39.714595 33.349189 49.401081 87.316757 81.781622 126.201081C240.778378 824.043243 356.462703 885.206486 476.713514 896zM430.633514 754.854054c137.132973 41.651892 297.513514-34.317838 348.436756-169.098378 39.299459-97.003243 17.574054-215.178378-54.244324-291.563244-78.460541-88.008649-212.964324-117.76-321.868108-73.478918-110.010811 41.236757-187.779459 156.229189-180.722162 274.265945 2.905946 120.112432 93.128649 229.154595 208.397838 259.874595m28.09081-41.928649c-105.167568-23.109189-191.238919-122.326486-188.886486-231.783783-0.276757-102.261622 75.277838-197.050811 173.526486-222.78919 96.726486-29.336216 209.228108 10.516757 265.271352 94.650811 50.923243 71.956757 54.382703 173.526486 8.302702 248.804325-50.508108 87.178378-159.965405 134.642162-258.214054 111.117837zM0-88.00864899999999c11.900541 135.334054 101.154595 254.754595 222.235676 313.427027 69.604324-60.332973 156.782703-101.56973 249.357838-108.627027 118.451892-12.177297 238.702703 30.304865 326.988108 109.318919 121.219459-58.118919 211.027027-176.155676 225.418378-311.074594V-128H0v39.991351m223.065946 256.968649C130.767568 115.40756799999997 64.069189 20.064865000000054 50.646486-86.34810800000002c308.307027-0.276757 616.475676-0.276757 924.644325 0.138378-8.302703 109.457297-76.8 209.781622-171.312433 263.610811-163.148108-130.352432-414.028108-134.780541-580.912432-8.441081z"  horiz-adv-x="1024" />

    
    <glyph glyph-name="daishouhuo2" unicode="&#58902;" d="M962.56 635.392V745.472c0 49.152-39.936 89.088-88.576 89.088H150.016C101.376 834.56 61.44 794.624 61.44 745.472v-110.08c0-47.616 36.864-86.528 83.968-89.088v-442.368c0-34.304 28.672-62.464 63.488-62.464h289.28c48.128-67.584 125.952-108.032 208.384-108.032 140.8 0 255.488 114.688 255.488 255.488 0 71.168-30.208 139.776-82.944 187.904v168.96c46.592 3.072 83.456 41.984 83.456 89.6zM127.488 745.472c0 12.8 10.24 23.552 22.528 23.552h723.968c12.288 0 22.528-10.24 22.528-23.552v-110.08c0-12.8-10.24-23.552-22.528-23.552H150.016c-12.288 0-22.528 10.24-22.528 23.552V745.472z m579.584-745.984c-104.448 0-189.952 84.992-189.952 189.952s84.992 189.952 189.952 189.952c42.496 0 82.432-13.824 115.712-39.936 1.536-2.048 3.584-3.072 5.632-4.096 43.52-36.352 68.096-89.088 68.096-145.408 0-105.472-84.992-190.464-189.44-190.464zM211.456 542.72l602.112-0.512v-120.832c-33.792 15.872-69.632 23.552-106.496 23.552-140.8 0-255.488-114.688-255.488-255.488 0-27.648 4.608-54.784 13.824-81.408H211.456V542.72zM846.336 222.208h-106.496v106.496c0 17.92-14.848 32.768-32.768 32.768s-32.768-14.848-32.768-32.768V189.44c0-17.92 14.848-32.768 32.768-32.768h139.264c17.92 0 32.768 14.848 32.768 32.768s-14.848 32.768-32.768 32.768z"  horiz-adv-x="1024" />

    
    <glyph glyph-name="daipinglun2" unicode="&#58895;" d="M249.484 551.47h444.648c17.78 0 32.21 13.266 32.21 29.557 0 16.337-14.43 29.603-32.21 29.603H249.484c-17.78 0-32.163-13.266-32.163-29.603 0-16.291 14.429-29.556 32.163-29.556z m0-168.215H778.1c17.78 0 32.21 13.266 32.21 29.557 0 16.337-14.43 29.603-32.21 29.603H249.484c-17.78 0-32.163-13.266-32.163-29.603 0-16.291 14.429-29.557 32.163-29.557zM838.05 896H195.119C87.878 896 0.652 814.173 0.652 713.542v-470.9c0-92.859 74.333-169.752 170.123-181.016 12.8-1.49 25.228-1.396 38.074-1.396h114.642v0.093h22.9c17.78 0 32.21 13.219 32.21 29.556 0 16.291-14.43 29.557-32.21 29.557H190.045c-69.353 2.56-125.021 56.832-125.021 123.205v470.9c0 67.957 58.368 123.346 130.095 123.346H838.05c71.68 0 130.048-55.389 130.048-123.345v-470.9c0-67.957-58.322-123.3-130.048-123.3H654.755l-0.047-0.232a33.699 33.699 0 0 1-25.6-9.216L464.151-50.921a27.927 27.927 0 0 1 1.35-41.798 33.699 33.699 0 0 1 22.063-8.005 33.513 33.513 0 0 1 23.459 9.309l155.601 151.598h171.427c107.24 0 194.467 81.874 194.467 182.458v470.9C1032.518 814.174 945.292 896 838.05 896z"  horiz-adv-x="1070" />

    
    <glyph glyph-name="fankui51" unicode="&#58891;" d="M663.552-11.264a20.48 20.48 0 1 1 40.96 0 20.48 20.48 0 1 1-40.96 0zM610.816 9.216H167.424c-16.896 0-30.72 13.824-30.72 30.72v655.36c0 16.896 13.824 30.72 30.72 30.72h378.88c11.264 0 20.48 9.216 20.48 20.48s-9.216 20.48-20.48 20.48h-378.88c-39.424 0-71.68-32.256-71.68-71.68v-654.848c0-39.424 32.256-71.68 71.68-71.68h442.88c11.264 0 20.48 9.216 20.48 20.48s-8.704 19.968-19.968 19.968z m263.168 430.08c-11.264 0-20.48-9.216-20.48-20.48v-378.88c0-16.896-13.824-30.72-30.72-30.72h-66.048c-11.264 0-20.48-9.216-20.48-20.48s9.216-20.48 20.48-20.48h66.048c39.424 0 71.68 32.256 71.68 71.68v378.88c0 11.264-9.216 20.48-20.48 20.48zM936.96 701.44l-72.192 72.192c-9.728 9.728-22.528 14.848-36.352 14.848-13.824 0-26.624-5.12-36.352-14.848L390.144 371.2c-6.656-6.656-11.776-15.36-13.824-25.088l-28.16-124.928c-2.56-10.24 0.512-20.992 8.192-28.672 5.632-5.632 13.824-9.216 21.504-9.216 2.048 0 4.608 0 6.656 1.024l125.44 28.16c9.216 2.048 17.92 6.656 25.088 13.824l401.92 402.432c19.968 19.968 19.968 52.736 0 72.704z m-28.672-43.52l-401.92-402.432c-1.536-1.536-3.072-2.56-5.12-2.56L391.68 228.352l24.576 109.568c0.512 2.048 1.536 3.584 2.56 5.12l401.92 402.432c2.56 2.56 5.632 3.072 7.168 3.072 1.536 0 4.608-0.512 7.168-3.072l72.192-72.192c5.12-5.12 5.12-11.264 1.024-15.36z"  horiz-adv-x="1024" />

    
    <glyph glyph-name="daifukuan" unicode="&#59019;" d="M175.16858-110.310127A156.313506 156.313506 0 0 0 17.654564 43.849522V458.484604a156.207579 156.207579 0 0 0 157.478707 154.124341h90.779766l125.523948 226.15496a25.175408 25.175408 0 0 0 22.032895 12.993759 24.928244 24.928244 0 0 0 11.228303-2.648185l153.241612-76.656115L688.386745 871.813248a25.06948 25.06948 0 0 0 16.948381 6.602807 25.140099 25.140099 0 0 0 17.83111-7.414917l212.349091-212.596255a25.140099 25.140099 0 0 0 7.379608-17.866419 25.06948 25.06948 0 0 0-7.379608-17.654563l-10.274956-10.274956a156.031033 156.031033 0 0 0 150.310955-153.947795v-45.548775h1.377056l-1.306438-51.869108v-317.393745a156.278197 156.278197 0 0 0-157.478708-154.159649zM68.040688 458.484604v-414.635082a106.315782 106.315782 0 0 1 107.092583-104.903417H918.037309a106.351091 106.351091 0 0 1 107.021965 104.903417v52.963691H811.403745a158.432054 158.432054 0 0 0-157.902417 158.114272 158.220199 158.220199 0 0 0 157.902417 158.18489h213.655529v45.548775a106.315782 106.315782 0 0 1-107.092583 104.903417h-46.466812a25.634426 25.634426 0 0 0-6.673425-0.882728 25.634426 25.634426 0 0 0-6.673425 0.882728h-436.067722a25.034171 25.034171 0 0 0-9.392227-1.800766 25.034171 25.034171 0 0 0-9.392228 1.800766H288.722734a25.175408 25.175408 0 0 0-8.08579-1.341747 25.104789 25.104789 0 0 0-8.085791 1.341747H175.062653a106.315782 106.315782 0 0 1-107.021965-105.115272z m635.988001-203.733664a107.869384 107.869384 0 0 1 107.480983-107.586911h212.313782l1.341747 213.902693-213.655529 1.341747a107.692838 107.692838 0 0 1-107.480983-107.692839z m150.169718 357.858005l26.940864 26.976173-175.733526 177.781456-226.543361-204.792939z m-450.509155 0l133.680356 121.639943-112.424261 58.295369-101.054723-180.076549z m382.856867-358.670115a51.763181 51.763181 0 0 0 51.727872 51.798489 51.79849 51.79849 0 0 0 51.76318-51.798489 51.763181 51.763181 0 0 0-51.76318-51.763181 51.727871 51.727871 0 0 0-51.727872 51.727872z"  horiz-adv-x="1095" />

    
    <glyph glyph-name="shezhi1" unicode="&#58887;" d="M891.392 384c0 39.762 24.146 74.721 61.507 89.062l19.128 7.342-5.059 19.85a466.831 466.831 0 0 1-50.995 123.219l-10.455 17.612-18.714-8.32a95.933 95.933 0 0 0-39.219-8.325 94.326 94.326 0 0 0-67.24 27.904c-28.12 28.12-35.769 69.899-19.482 106.435l8.356 18.75-17.664 10.454a469.356 469.356 0 0 1-123.29 50.985l-19.814 5.049-7.363-19.077c-14.433-37.392-49.403-61.553-89.078-61.553-39.757 0-74.716 24.146-89.062 61.517l-7.342 19.118-19.85-5.054a466.586 466.586 0 0 1-123.218-51l-17.613-10.455 8.32-18.714c16.266-36.567 8.617-78.356-19.477-106.455-17.945-17.95-41.866-27.837-67.348-27.837-13.589 0-26.757 2.78-39.132 8.269l-18.668 8.279-10.46-17.547a464.138 464.138 0 0 1-51.113-123.253l-5.043-19.815 19.077-7.362c37.376-14.434 61.532-49.398 61.532-89.078 0-39.757-24.146-74.716-61.517-89.068l-19.123-7.347 5.054-19.85a466.995 466.995 0 0 1 50.995-123.213l10.455-17.618 18.719 8.33a95.877 95.877 0 0 0 39.214 8.326c25.41 0 49.28-9.902 67.235-27.9 28.125-28.123 35.769-69.903 19.487-106.439l-8.356-18.75 17.664-10.454a469.028 469.028 0 0 1 123.29-50.98l19.814-5.049 7.363 19.078c14.449 37.386 49.413 61.542 89.093 61.542 39.762 0 74.721-24.146 89.068-61.512l7.347-19.123 19.85 5.059a467.174 467.174 0 0 1 123.218 50.99l17.618 10.46-8.33 18.719c-16.267 36.567-8.628 78.351 19.476 106.455 17.946 17.95 41.861 27.837 67.338 27.837 13.589 0 26.763-2.785 39.138-8.269l18.672-8.284 10.455 17.552a464.256 464.256 0 0 1 51.113 123.248l5.049 19.85-19.119 7.348c-37.365 14.34-61.501 49.305-61.501 89.062z m-5.857-199.542a142.013 142.013 0 0 1-37.95 5.115c-37.796 0-73.282-14.679-99.932-41.334-36.66-36.67-49.879-88.975-36.162-137.871a421.565 421.565 0 0 0-76.39-31.61c-24.874 44.287-71.225 71.93-123.101 71.93-51.784 0-98.13-27.648-123.07-71.936a422.543 422.543 0 0 0-76.559 31.662c13.317 48.517-0.066 101.765-36.111 137.805-26.64 26.71-62.096 41.42-99.84 41.42-12.98 0-25.708-1.725-38.037-5.15a421.023 421.023 0 0 0-31.626 76.41c44.288 24.874 71.936 71.225 71.936 123.101 0 51.789-27.648 98.135-71.936 123.07a417.91 417.91 0 0 0 31.703 76.467c12.293-3.4 24.996-5.115 37.95-5.115 37.79 0 73.282 14.679 99.932 41.334 36.664 36.669 49.889 88.97 36.173 137.87a420.639 420.639 0 0 0 76.385 31.612c24.873-44.288 71.224-71.936 123.095-71.936 51.789 0 98.13 27.643 123.07 71.94a422.932 422.932 0 0 0 76.559-31.666c-13.323-48.512 0.066-101.76 36.106-137.805 26.644-26.711 62.106-41.42 99.845-41.42a141.773 141.773 0 0 1 38.042 5.15 421.345 421.345 0 0 0 31.62-76.411c-44.287-24.863-71.924-71.21-71.924-123.09 0-51.876 27.638-98.227 71.926-123.1a418.627 418.627 0 0 0-31.703-76.442zM512 525.819c-78.198 0-141.819-63.621-141.819-141.819 0-78.203 63.621-141.824 141.819-141.824 78.203 0 141.824 63.621 141.824 141.824 0 78.198-63.621 141.819-141.824 141.819z m0-237.563c-52.792 0-95.739 42.952-95.739 95.744s42.952 95.739 95.739 95.739c52.797 0 95.744-42.952 95.744-95.739 0-52.797-42.947-95.744-95.744-95.744z"  horiz-adv-x="1024" />

    
    <glyph glyph-name="xiaoxi" unicode="&#58884;" d="M416 490.667q32 0 32-32v-64q0-32-32-32t-32 32v64q0 32 32 32z m213.333 0q32 0 32-32v-64q0-32-32-32t-32 32v64q0 32 32 32zM850.603 58.944A467.456 467.456 0 0 1 981.333 384c0 258.773-210.517 469.333-469.29 469.333C253.184 853.44 42.667 642.88 42.667 384c0-258.773 210.517-469.333 469.29-469.333h341.888c16.662 0 31.766 9.642 38.784 24.64a42.773 42.773 0 0 1-5.76 45.61m-97.216-1.578H512C291.093-16.64 111.36 163.093 111.36 384S291.093 784.64 512 784.64 912.64 604.907 912.64 384a398.72 398.72 0 0 0-111.595-277.44c-32.085-33.28-29.461-79.296-11.392-123.221z"  horiz-adv-x="1024" />

    
    <glyph glyph-name="quanbushangpin2" unicode="&#58909;" d="M402.9184 359.68h218.1632c20.096 0 36.352 16.2304 36.352 36.2752 0 20.0192-16.256 36.2752-36.352 36.2752H402.944c-20.096 0-36.352-16.256-36.352-36.2752 0-20.0448 16.256-36.2752 36.352-36.2752M914.2784 80.512a109.7216 109.7216 0 0 0-109.696-109.7472H219.392a109.7216 109.7216 0 0 0-109.696 109.7472V577.7408h804.5568v-497.2288z m0 716.7232c20.224 0 36.5824-16.384 36.5824-36.5824v-73.1648c0-20.224-16.384-36.5824-36.5824-36.5824H109.7216c-20.224 0-36.5824 16.384-36.5824 36.5824V760.6528c0 20.224 16.384 36.5824 36.5824 36.5824h804.5568zM109.7216 870.4A109.7216 109.7216 0 0 1 0 760.6528v-73.1648c0-34.5088 15.9488-65.2288 40.832-85.3504a72.8832 72.8832 0 0 1-4.2496-24.3968v-497.2288A182.8864 182.8864 0 0 1 219.392-102.4H804.608a182.8864 182.8864 0 0 1 182.8352 182.912V577.7408c0 8.576-1.536 16.7424-4.2496 24.3968A109.4912 109.4912 0 0 1 1024 687.488V760.6528A109.7216 109.7216 0 0 1 914.2784 870.4H109.7216z"  horiz-adv-x="1024" />

    
    <glyph glyph-name="xiaoxi21" unicode="&#58885;" d="M409.6 497.77813333q34.13333333 0 34.13333333-34.13333333v-68.26666667q0-34.13333333-34.13333333-34.13333333t-34.13333333 34.13333333v68.26666667q0 34.13333333 34.13333333 34.13333333zM637.1552 497.77813333q34.13333333 0 34.13333333-34.13333333v-68.26666667q0-34.13333333-34.13333333-34.13333333t-34.13333333 34.13333333v68.26666667q0 34.13333333 34.13333333 34.13333333zM873.17653333 37.27359999999999A498.61973333 498.61973333 0 0 1 1012.62186667 384c0 276.02453333-224.55146667 500.62186667-500.576 500.62186667C235.9296 884.736 11.37813333 660.13866667 11.37813333 384c0-276.02453333 224.55146667-500.62186667 500.576-500.62186667h364.68053334c17.7728 0 33.88373333 10.2848 41.3696 26.28266667a45.62453333 45.62453333 0 0 1-6.144 48.65066667m-103.69706667-1.6832H512C276.36586667-43.349333330000036 84.65066667 148.36586666999995 84.65066667 384S276.36586667 811.34933333 512 811.34933333 939.34933333 619.6341333299999 939.34933333 384a425.30133333 425.30133333 0 0 0-119.03466666-295.936c-34.224-35.49866667-31.42506667-84.5824-12.15146667-131.43573333z"  horiz-adv-x="1024" />

    
    <glyph glyph-name="xiaoxi1" unicode="&#58950;" d="M355.776-42.219c-8.619 0-17.216 3.2-23.744 9.579l-117.44 117.504H76.8c-18.816 0-34.133 15.317-34.133 34.133V648.085c0 18.816 15.317 34.134 34.133 34.134h125.867v-64h-96v-469.334h136.938l7.872-10.389 104.406-104.448L459.776 137.92a29.163 29.163 0 0 1-4.97-7.765l0.49 1.002c3.307 6.635 11.712 17.728 30.763 17.728h303.274v96h64V119.02c0-18.816-15.317-34.134-34.133-34.134H497.216L380.011-32.32a34.645 34.645 0 0 0-24.235-9.899z m156.715 144.747a36.864 36.864 0 0 0-6.507-8.896 31.466 31.466 0 0 1 6.507 8.896zM947.2 212.885H823.467c-18.816 0-34.134 15.318-34.134 34.134v371.2H204.8c-18.816 0-34.133 15.317-34.133 34.133V776.085c0 18.816 15.317 34.134 34.133 34.134h742.4c18.816 0 34.133-15.318 34.133-34.134v-529.088c0-18.816-15.317-34.112-34.133-34.112z m-93.867 64h64V746.22H234.667v-64H819.2c18.816 0 34.133-15.318 34.133-34.134v-371.2zM690.667 437.333H205.333a21.333 21.333 0 1 0 0 42.667h485.334a21.333 21.333 0 1 0 0-42.667zM448 288H205.333a21.333 21.333 0 1 0 0 42.667H448A21.333 21.333 0 1 0 448 288z"  horiz-adv-x="1024" />

    
    <glyph glyph-name="wode" unicode="&#58881;" d="M875.507-40.258H124.998c-19.417 0-38.836 9.709-51.458 24.272l-0.97 0.97c-12.622 17.478-16.506 37.867-11.652 56.313 39.808 201.949 206.804 355.352 405.838 371.857 4.855 0.97 8.738 1.941 12.622 1.941h36.895l-4.855-48.545H492c-7.767 0-11.651 0-17.476-1.94h-2.912c-179.62-12.624-330.108-150.493-365.062-333.993-0.97-4.855-0.97-11.652 3.883-16.506l0.97-1.941c2.915-3.884 7.77-5.827 13.594-5.827h751.48c5.825 0 10.68 1.942 13.592 5.827 4.855 5.825 5.825 11.65 4.855 18.447-22.33 120.392-95.15 222.336-198.064 280.59l-0.97 0.971c-7.768 4.856-17.477 9.71-26.215 14.564-2.913 1.942-5.826 2.912-8.738 4.854l-13.593 5.826 19.418 43.69 13.592-5.825c9.709-3.883 19.419-9.708 28.157-13.592l11.65-5.826C836.67 289.847 917.254 175.282 943.47 41.296c4.854-19.418 0-39.807-14.563-57.283-13.593-15.534-33.982-24.272-53.4-24.272zM505.593 381.114c-122.334 0-223.308 100.973-223.308 223.307S383.259 827.73 505.593 827.73 728.9 726.755 728.9 604.422 626.956 381.114 505.594 381.114z m0 411.663c-104.858 0-188.356-84.469-188.356-188.356s84.47-188.355 188.356-188.355 188.355 84.47 188.355 188.355-84.47 188.356-188.355 188.356zM505.593 376.26c-126.218 0-228.163 101.944-228.163 228.161S379.375 832.585 505.593 832.585 733.755 730.639 733.755 604.42 630.839 376.26 505.593 376.26z m0 446.615c-120.392 0-218.454-98.061-218.454-218.454s98.062-218.453 218.454-218.453 218.453 98.062 218.453 218.453-98.06 218.454-218.453 218.454z m0-411.663c-106.8 0-193.21 86.41-193.21 193.21s86.41 193.21 193.21 193.21c106.8 0 193.21-86.41 193.21-193.21s-87.382-193.21-193.21-193.21z m0 376.71c-100.974 0-183.501-82.527-183.501-183.5 0-100.975 82.527-183.501 183.5-183.501s183.501 82.528 183.501 183.5c0 100.974-82.527 183.501-183.5 183.501z m-298.068-667.01c-1.941 0-4.854 0.97-6.796 1.941-6.796 3.884-9.71 12.622-5.826 19.419 85.44 166.025 270.883 197.093 278.65 198.064 7.768 0.97 15.534-3.884 16.506-11.651 0.97-7.768-3.884-15.534-11.652-16.506-1.94 0-178.646-30.097-257.29-182.529-2.911-5.826-7.767-8.738-13.592-8.738z m-33.01-84.47c-7.767 0-14.564 6.797-14.564 14.565 0 28.156 18.447 58.254 21.36 61.167 3.883 6.796 13.592 8.738 20.39 4.853 6.795-3.882 8.737-13.591 4.853-20.388-4.854-6.796-16.505-29.128-16.505-45.632-0.97-7.768-6.797-14.564-15.535-14.564z"  horiz-adv-x="1024" />

    
    <glyph glyph-name="shouye" unicode="&#58955;" d="M209.856 355.639v-276.034c0-15.094 12.242-27.33 27.344-27.33h128.513V176.627c0 80.753 65.495 146.216 146.287 146.216s146.287-65.463 146.287-146.216v-124.352H786.8c15.102 0 27.344 12.236 27.344 27.33V355.64h60.155v-276.034c0-48.3-39.175-87.456-87.499-87.456H596.823a86.584 86.584 0 0 1 1.308 15.032V176.627c0 47.546-38.562 86.09-86.131 86.09-47.57 0-86.131-38.544-86.131-86.09v-169.446c0-5.128 0.448-10.15 1.308-15.032H237.2c-48.324 0-87.499 39.156-87.499 87.456V355.64h60.155zM595.14 771.467L963.925 402.86l-42.536-42.515-368.786 368.607c-22.425 22.413-58.781 22.413-81.206 0L102.611 360.345 60.075 402.86 428.86 771.467c45.916 45.895 120.362 45.895 166.278 0z"  horiz-adv-x="1024" />

    
    <glyph glyph-name="leimupinleifenleileibie2-copy" unicode="&#58920;" d="M349.43835767 351.65868592000004H219.60736767c-71.40704449 0-129.83098998-58.4239455-129.83098999-129.83098999v-129.83099c0-71.40704449 58.4239455-129.83098998 129.83099-129.83098999h129.83098999c71.40704449 0 129.83098998 58.4239455 129.83098999 129.83098999V221.82769593c0 71.40704449-58.4239455 129.83098998-129.83098999 129.83098999z m64.915495-259.66197999c0-35.70352225-29.21197275-64.91549499-64.915495-64.91549498H219.60736767c-35.70352225 0-64.91549499 29.21197275-64.915495 64.91549498V221.82769593c0 35.70352225 29.21197275 64.91549499 64.91549501 64.91549498h129.83098999c35.70352225 0 64.91549499-29.21197275 64.915495-64.91549498v-129.83099zM803.84682265 806.06715089H674.01583263c-71.40704449 0-129.83098998-58.4239455-129.83098998-129.83099v-129.83098998c0-71.40704449 58.4239455-129.83098998 129.83098998-129.83098999h129.83099002c71.40704449 0 129.83098998 58.4239455 129.83098997 129.83098999V676.2361608900001c0 71.40704449-58.4239455 129.83098998-129.83098997 129.83099z m64.91549498-259.66197998c0-35.70352225-29.21197275-64.91549499-64.91549498-64.915495H674.01583263c-35.70352225 0-64.91549499 29.21197275-64.91549497 64.915495V676.2361608900001c0 35.70352225 29.21197275 64.91549499 64.91549497 64.91549501h129.83099002c35.70352225 0 64.91549499-29.21197275 64.91549498-64.91549501v-129.83098998z m-64.91549498-194.74648499H674.01583263c-71.40704449 0-129.83098998-58.4239455-129.83098998-129.83098999v-129.83099c0-71.40704449 58.4239455-129.83098998 129.83098998-129.83098999h129.83099002c71.40704449 0 129.83098998 58.4239455 129.83098997 129.83098999V221.82769593c0 71.40704449-58.4239455 129.83098998-129.83098997 129.83098999z m64.91549498-259.66197999c0-35.70352225-29.21197275-64.91549499-64.91549498-64.91549498H674.01583263c-35.70352225 0-64.91549499 29.21197275-64.91549497 64.91549498V221.82769593c0 35.70352225 29.21197275 64.91549499 64.91549497 64.91549498h129.83099002c35.70352225 0 64.91549499-29.21197275 64.91549498-64.91549498v-129.83099zM349.43835767 806.06715089H219.60736767c-71.40704449 0-129.83098998-58.4239455-129.83098999-129.83099v-129.83098998c0-71.40704449 58.4239455-129.83098998 129.83099-129.83098999h129.83098999c71.40704449 0 129.83098998 58.4239455 129.83098999 129.83098999V676.2361608900001c0 71.40704449-58.4239455 129.83098998-129.83098999 129.83099z m64.915495-259.66197998c0-35.70352225-29.21197275-64.91549499-64.915495-64.915495H219.60736767c-35.70352225 0-64.91549499 29.21197275-64.915495 64.915495V676.2361608900001c0 35.70352225 29.21197275 64.91549499 64.91549501 64.91549501h129.83098999c35.70352225 0 64.91549499-29.21197275 64.915495-64.91549501v-129.83098998z"  horiz-adv-x="1024" />

    
    <glyph glyph-name="gouwuche" unicode="&#58880;" d="M924.79599966 133.48466699999994H274.04399966c-19.285333 0-37.376 7.509333-50.858666 21.16266601-13.482667 13.653333-20.992 31.573333-20.82133399 50.858667l2.38933399 479.232c0 19.114667-6.656 31.914667-39.76533399 37.205333h-0.170666l-95.573334 16.38399999c-9.216 1.536-15.530667 10.410667-13.994666 19.626667 1.536 9.216 10.410667 15.530667 19.62666599 13.994667l95.40266701-16.384c45.397333-7.168 68.437333-31.061333 68.437333-70.99733399L236.32666666 205.16466701000002c0-10.069333 3.754667-19.456 10.922667-26.45333401 7.168-7.168 16.554667-11.093333 26.624-11.093333h650.752c9.386667 0 17.066667-7.68 17.066666-17.06666699s-7.509333-17.066667-16.896-17.06666601zM876.15599966 231.44733299999996l-602.624 1.87733401c-18.944 0.170667-36.693333 7.509333-50.005333 20.99199999-13.312 13.482667-20.48 31.232-20.47999999 50.176l1.87733299 353.962666L886.73733366 607.596667c30.890667-1.194667 55.125333-26.282667 55.125333-57.173334V296.98333301c0-36.181333-29.525333-65.536-65.706667-65.53600001zM273.87333366 267.45799999999997l602.453333-1.87733299c17.408 0 31.573333 14.165333 31.57333301 31.402666V550.423333c0 12.458667-9.898667 22.698667-22.35733301 23.04000001h-0.68266699l-645.632 48.12799999-1.53600001-317.44c0-9.728 3.754667-18.944 10.58133401-25.941333 6.485333-6.826667 15.701333-10.752 25.59999999-10.752zM340.26266667 77.16466701000002m-63.658667 0a63.658667 63.658667 0 1 1 127.31733399 0 63.658667 63.658667 0 1 1-127.31733399 0ZM340.26266667-3.5606669999999667c-44.544 0-80.725333 36.181333-80.72533301 80.72533401s36.181333 80.725333 80.72533301 80.72533299c44.544 0 80.725333-36.181333 80.72533299-80.72533299s-36.181333-80.725333-80.72533299-80.72533401z m0 127.317334c-25.770667 0-46.592-20.821333-46.59200001-46.59199999s20.821333-46.592 46.59200001-46.592 46.592 20.821333 46.592 46.592-20.821333 46.592-46.592 46.59199999zM828.88133367 77.16466701000002m-63.658667 0a63.658667 63.658667 0 1 1 127.317333 0 63.658667 63.658667 0 1 1-127.317333 0ZM828.88133367-3.5606669999999667c-44.544 0-80.725333 36.181333-80.72533401 80.72533401s36.181333 80.725333 80.72533401 80.72533299 80.725333-36.181333 80.72533299-80.72533299-36.181333-80.725333-80.72533299-80.72533401z m0 127.317334c-25.770667 0-46.592-20.821333-46.592-46.59199999s20.821333-46.592 46.592-46.592 46.592 20.821333 46.592 46.592-20.821333 46.592-46.592 46.59199999zM726.48133366 459.28733301H378.66266666c-9.386667 0-17.066667 7.68-17.066667 17.06666699s7.68 17.066667 17.066667 17.066667h347.818667c9.386667 0 17.066667-7.68 17.066666-17.066667s-7.68-17.066667-17.066666-17.06666699zM726.48133366 361.154H378.66266666c-9.386667 0-17.066667 7.68-17.066667 17.066667s7.68 17.066667 17.066667 17.066666h347.818667c9.386667 0 17.066667-7.68 17.066666-17.066666s-7.68-17.066667-17.066666-17.066667z"  horiz-adv-x="1024" />

    


  </font>
</defs>
</svg>
